<?xml version="1.0" encoding="UTF-8" standalone="no"?>
<!DOCTYPE svg PUBLIC "-//W3C//DTD SVG 1.1//EN"
 "http://www.w3.org/Graphics/SVG/1.1/DTD/svg11.dtd">
<!-- Generated by graphviz version 2.40.1 (20161225.0304)
 -->
<!-- Title: dependencies Pages: 1 -->
<svg width="2897pt" height="284pt"
 viewBox="0.00 0.00 2897.00 284.00" xmlns="http://www.w3.org/2000/svg" xmlns:xlink="http://www.w3.org/1999/xlink">
<g id="graph0" class="graph" transform="scale(1 1) rotate(0) translate(4 280)">
<title>dependencies</title>
<polygon fill="#ffffff" stroke="transparent" points="-4,4 -4,-280 2893,-280 2893,4 -4,4"/>
<text text-anchor="start" x="1423.5091" y="-42.4" font-family="sans-serif" font-weight="bold" font-size="14.00" fill="#000000">Legend</text>
<polygon fill="#ffffb3" stroke="transparent" points="1210.5,-10 1210.5,-30 1230.5,-30 1230.5,-10 1210.5,-10"/>
<text text-anchor="start" x="1234.129" y="-15.4" font-family="sans-serif" font-size="14.00" fill="#000000"> &#160;Declarations</text>
<polygon fill="#8dd3c7" stroke="transparent" points="1323.5,-10 1323.5,-30 1343.5,-30 1343.5,-10 1323.5,-10"/>
<text text-anchor="start" x="1347.2251" y="-15.4" font-family="sans-serif" font-size="14.00" fill="#000000"> &#160;Module</text>
<polygon fill="#80b1d3" stroke="transparent" points="1409.5,-10 1409.5,-30 1429.5,-30 1429.5,-10 1409.5,-10"/>
<text text-anchor="start" x="1433.2812" y="-15.4" font-family="sans-serif" font-size="14.00" fill="#000000"> &#160;Bootstrap</text>
<polygon fill="#fdb462" stroke="transparent" points="1506.5,-10 1506.5,-30 1526.5,-30 1526.5,-10 1506.5,-10"/>
<text text-anchor="start" x="1530.1732" y="-15.4" font-family="sans-serif" font-size="14.00" fill="#000000"> &#160;Providers</text>
<polygon fill="#fb8072" stroke="transparent" points="1602.5,-10 1602.5,-30 1622.5,-30 1622.5,-10 1602.5,-10"/>
<text text-anchor="start" x="1626.2258" y="-15.4" font-family="sans-serif" font-size="14.00" fill="#000000"> &#160;Exports</text>
<g id="clust1" class="cluster">
<title>cluster_MaterialModule</title>
<polygon fill="none" stroke="#000000" stroke-dasharray="1,5" points="8,-70 8,-268 2881,-268 2881,-70 8,-70"/>
</g>
<g id="clust3" class="cluster">
<title>cluster_MaterialModule_imports</title>
<polygon fill="none" stroke="#000000" points="16,-78 16,-130 2873,-130 2873,-78 16,-78"/>
</g>
<g id="clust4" class="cluster">
<title>cluster_MaterialModule_exports</title>
<polygon fill="none" stroke="#000000" points="48,-208 48,-260 2841,-260 2841,-208 48,-208"/>
</g>
<!-- CommonModule -->
<g id="node1" class="node">
<title>CommonModule</title>
<polygon fill="#8dd3c7" stroke="#000000" points="2864.6681,-122 2861.6681,-126 2840.6681,-126 2837.6681,-122 2753.3319,-122 2753.3319,-86 2864.6681,-86 2864.6681,-122"/>
<text text-anchor="middle" x="2809" y="-99.8" font-family="Times,serif" font-size="14.00" fill="#000000">CommonModule</text>
</g>
<!-- MaterialModule -->
<g id="node21" class="node">
<title>MaterialModule</title>
<polygon fill="#8dd3c7" stroke="#000000" points="1495.4706,-187 1492.4706,-191 1471.4706,-191 1468.4706,-187 1388.5294,-187 1388.5294,-151 1495.4706,-151 1495.4706,-187"/>
<text text-anchor="middle" x="1442" y="-164.8" font-family="Times,serif" font-size="14.00" fill="#000000">MaterialModule</text>
</g>
<!-- CommonModule&#45;&gt;MaterialModule -->
<g id="edge1" class="edge">
<title>CommonModule&#45;&gt;MaterialModule</title>
<path fill="none" stroke="#000000" d="M2793.0626,-122.1061C2793.0626,-141.3391 2793.0626,-169 2793.0626,-169 2793.0626,-169 1505.797,-169 1505.797,-169"/>
<polygon fill="#000000" stroke="#000000" points="1505.797,-165.5001 1495.797,-169 1505.797,-172.5001 1505.797,-165.5001"/>
</g>
<!-- MatToolbarModule -->
<g id="node2" class="node">
<title>MatToolbarModule</title>
<polygon fill="#8dd3c7" stroke="#000000" points="2735.4187,-122 2732.4187,-126 2711.4187,-126 2708.4187,-122 2608.5813,-122 2608.5813,-86 2735.4187,-86 2735.4187,-122"/>
<text text-anchor="middle" x="2672" y="-99.8" font-family="Times,serif" font-size="14.00" fill="#000000">MatToolbarModule</text>
</g>
<!-- MatToolbarModule&#45;&gt;MaterialModule -->
<g id="edge2" class="edge">
<title>MatToolbarModule&#45;&gt;MaterialModule</title>
<path fill="none" stroke="#000000" d="M2646.8249,-122.2222C2646.8249,-140.8285 2646.8249,-167 2646.8249,-167 2646.8249,-167 1505.7163,-167 1505.7163,-167"/>
<polygon fill="#000000" stroke="#000000" points="1505.7163,-163.5001 1495.7163,-167 1505.7162,-170.5001 1505.7163,-163.5001"/>
</g>
<!-- MatButtonModule -->
<g id="node3" class="node">
<title>MatButtonModule</title>
<polygon fill="#8dd3c7" stroke="#000000" points="2591.2176,-122 2588.2176,-126 2567.2176,-126 2564.2176,-122 2470.7824,-122 2470.7824,-86 2591.2176,-86 2591.2176,-122"/>
<text text-anchor="middle" x="2531" y="-99.8" font-family="Times,serif" font-size="14.00" fill="#000000">MatButtonModule</text>
</g>
<!-- MatButtonModule&#45;&gt;MaterialModule -->
<g id="edge3" class="edge">
<title>MatButtonModule&#45;&gt;MaterialModule</title>
<path fill="none" stroke="#000000" d="M2507.1212,-122.302C2507.1212,-140.2699 2507.1212,-165 2507.1212,-165 2507.1212,-165 1505.5495,-165 1505.5495,-165"/>
<polygon fill="#000000" stroke="#000000" points="1505.5495,-161.5001 1495.5495,-165 1505.5494,-168.5001 1505.5495,-161.5001"/>
</g>
<!-- MatSidenavModule -->
<g id="node4" class="node">
<title>MatSidenavModule</title>
<polygon fill="#8dd3c7" stroke="#000000" points="2452.7022,-122 2449.7022,-126 2428.7022,-126 2425.7022,-122 2325.2978,-122 2325.2978,-86 2452.7022,-86 2452.7022,-122"/>
<text text-anchor="middle" x="2389" y="-99.8" font-family="Times,serif" font-size="14.00" fill="#000000">MatSidenavModule</text>
</g>
<!-- MatSidenavModule&#45;&gt;MaterialModule -->
<g id="edge4" class="edge">
<title>MatSidenavModule&#45;&gt;MaterialModule</title>
<path fill="none" stroke="#000000" d="M2359.8182,-122.0225C2359.8182,-139.3734 2359.8182,-163 2359.8182,-163 2359.8182,-163 1505.6496,-163 1505.6496,-163"/>
<polygon fill="#000000" stroke="#000000" points="1505.6496,-159.5001 1495.6496,-163 1505.6495,-166.5001 1505.6496,-159.5001"/>
</g>
<!-- MatIconModule -->
<g id="node5" class="node">
<title>MatIconModule</title>
<polygon fill="#8dd3c7" stroke="#000000" points="2307.4748,-122 2304.4748,-126 2283.4748,-126 2280.4748,-122 2200.5252,-122 2200.5252,-86 2307.4748,-86 2307.4748,-122"/>
<text text-anchor="middle" x="2254" y="-99.8" font-family="Times,serif" font-size="14.00" fill="#000000">MatIconModule</text>
</g>
<!-- MatIconModule&#45;&gt;MaterialModule -->
<g id="edge5" class="edge">
<title>MatIconModule&#45;&gt;MaterialModule</title>
<path fill="none" stroke="#000000" d="M2233.1008,-122.0352C2233.1008,-138.7344 2233.1008,-161 2233.1008,-161 2233.1008,-161 1505.7536,-161 1505.7536,-161"/>
<polygon fill="#000000" stroke="#000000" points="1505.7537,-157.5001 1495.7536,-161 1505.7536,-164.5001 1505.7537,-157.5001"/>
</g>
<!-- MatListModule -->
<g id="node6" class="node">
<title>MatListModule</title>
<polygon fill="#8dd3c7" stroke="#000000" points="2182.8781,-122 2179.8781,-126 2158.8781,-126 2155.8781,-122 2079.1219,-122 2079.1219,-86 2182.8781,-86 2182.8781,-122"/>
<text text-anchor="middle" x="2131" y="-99.8" font-family="Times,serif" font-size="14.00" fill="#000000">MatListModule</text>
</g>
<!-- MatListModule&#45;&gt;MaterialModule -->
<g id="edge6" class="edge">
<title>MatListModule&#45;&gt;MaterialModule</title>
<path fill="none" stroke="#000000" d="M2109.7894,-122.0091C2109.7894,-138.0494 2109.7894,-159 2109.7894,-159 2109.7894,-159 1505.5192,-159 1505.5192,-159"/>
<polygon fill="#000000" stroke="#000000" points="1505.5192,-155.5001 1495.5192,-159 1505.5191,-162.5001 1505.5192,-155.5001"/>
</g>
<!-- MatGridListModule -->
<g id="node7" class="node">
<title>MatGridListModule</title>
<polygon fill="#8dd3c7" stroke="#000000" points="2060.5366,-122 2057.5366,-126 2036.5366,-126 2033.5366,-122 1931.4634,-122 1931.4634,-86 2060.5366,-86 2060.5366,-122"/>
<text text-anchor="middle" x="1996" y="-99.8" font-family="Times,serif" font-size="14.00" fill="#000000">MatGridListModule</text>
</g>
<!-- MatGridListModule&#45;&gt;MaterialModule -->
<g id="edge7" class="edge">
<title>MatGridListModule&#45;&gt;MaterialModule</title>
<path fill="none" stroke="#000000" d="M1960.455,-122.2396C1960.455,-137.5706 1960.455,-157 1960.455,-157 1960.455,-157 1505.531,-157 1505.531,-157"/>
<polygon fill="#000000" stroke="#000000" points="1505.5311,-153.5001 1495.531,-157 1505.531,-160.5001 1505.5311,-153.5001"/>
</g>
<!-- MatProgressSpinnerModule -->
<g id="node8" class="node">
<title>MatProgressSpinnerModule</title>
<polygon fill="#8dd3c7" stroke="#000000" points="1912.8557,-122 1909.8557,-126 1888.8557,-126 1885.8557,-122 1739.1443,-122 1739.1443,-86 1912.8557,-86 1912.8557,-122"/>
<text text-anchor="middle" x="1826" y="-99.8" font-family="Times,serif" font-size="14.00" fill="#000000">MatProgressSpinnerModule</text>
</g>
<!-- MatProgressSpinnerModule&#45;&gt;MaterialModule -->
<g id="edge8" class="edge">
<title>MatProgressSpinnerModule&#45;&gt;MaterialModule</title>
<path fill="none" stroke="#000000" d="M1766.9041,-122.1243C1766.9041,-136.7832 1766.9041,-155 1766.9041,-155 1766.9041,-155 1505.6513,-155 1505.6513,-155"/>
<polygon fill="#000000" stroke="#000000" points="1505.6513,-151.5001 1495.6513,-155 1505.6513,-158.5001 1505.6513,-151.5001"/>
</g>
<!-- MatTableModule -->
<g id="node9" class="node">
<title>MatTableModule</title>
<polygon fill="#8dd3c7" stroke="#000000" points="1720.972,-122 1717.972,-126 1696.972,-126 1693.972,-122 1607.028,-122 1607.028,-86 1720.972,-86 1720.972,-122"/>
<text text-anchor="middle" x="1664" y="-99.8" font-family="Times,serif" font-size="14.00" fill="#000000">MatTableModule</text>
</g>
<!-- MatTableModule&#45;&gt;MaterialModule -->
<g id="edge9" class="edge">
<title>MatTableModule&#45;&gt;MaterialModule</title>
<path fill="none" stroke="#000000" d="M1633.3203,-122.2458C1633.3203,-136.1772 1633.3203,-153 1633.3203,-153 1633.3203,-153 1505.5478,-153 1505.5478,-153"/>
<polygon fill="#000000" stroke="#000000" points="1505.5478,-149.5001 1495.5478,-153 1505.5477,-156.5001 1505.5478,-149.5001"/>
</g>
<!-- MatPaginatorModule -->
<g id="node10" class="node">
<title>MatPaginatorModule</title>
<polygon fill="#8dd3c7" stroke="#000000" points="1588.7534,-122 1585.7534,-126 1564.7534,-126 1561.7534,-122 1453.2466,-122 1453.2466,-86 1588.7534,-86 1588.7534,-122"/>
<text text-anchor="middle" x="1521" y="-99.8" font-family="Times,serif" font-size="14.00" fill="#000000">MatPaginatorModule</text>
</g>
<!-- MatPaginatorModule&#45;&gt;MaterialModule -->
<g id="edge10" class="edge">
<title>MatPaginatorModule&#45;&gt;MaterialModule</title>
<path fill="none" stroke="#000000" d="M1474.3043,-122.1061C1474.3043,-122.1061 1474.3043,-140.991 1474.3043,-140.991"/>
<polygon fill="#000000" stroke="#000000" points="1470.8044,-140.9909 1474.3043,-150.991 1477.8044,-140.991 1470.8044,-140.9909"/>
</g>
<!-- MatSelectModule -->
<g id="node11" class="node">
<title>MatSelectModule</title>
<polygon fill="#8dd3c7" stroke="#000000" points="1435.3076,-122 1432.3076,-126 1411.3076,-126 1408.3076,-122 1318.6924,-122 1318.6924,-86 1435.3076,-86 1435.3076,-122"/>
<text text-anchor="middle" x="1377" y="-99.8" font-family="Times,serif" font-size="14.00" fill="#000000">MatSelectModule</text>
</g>
<!-- MatSelectModule&#45;&gt;MaterialModule -->
<g id="edge11" class="edge">
<title>MatSelectModule&#45;&gt;MaterialModule</title>
<path fill="none" stroke="#000000" d="M1411.8342,-122.1061C1411.8342,-122.1061 1411.8342,-140.991 1411.8342,-140.991"/>
<polygon fill="#000000" stroke="#000000" points="1408.3342,-140.9909 1411.8342,-150.991 1415.3342,-140.991 1408.3342,-140.9909"/>
</g>
<!-- MatTooltipModule -->
<g id="node12" class="node">
<title>MatTooltipModule</title>
<polygon fill="#8dd3c7" stroke="#000000" points="1300.8244,-122 1297.8244,-126 1276.8244,-126 1273.8244,-122 1177.1756,-122 1177.1756,-86 1300.8244,-86 1300.8244,-122"/>
<text text-anchor="middle" x="1239" y="-99.8" font-family="Times,serif" font-size="14.00" fill="#000000">MatTooltipModule</text>
</g>
<!-- MatTooltipModule&#45;&gt;MaterialModule -->
<g id="edge12" class="edge">
<title>MatTooltipModule&#45;&gt;MaterialModule</title>
<path fill="none" stroke="#000000" d="M1269.125,-122.2458C1269.125,-136.1772 1269.125,-153 1269.125,-153 1269.125,-153 1378.2489,-153 1378.2489,-153"/>
<polygon fill="#000000" stroke="#000000" points="1378.2489,-156.5001 1388.2489,-153 1378.2489,-149.5001 1378.2489,-156.5001"/>
</g>
<!-- MatFormFieldModule -->
<g id="node13" class="node">
<title>MatFormFieldModule</title>
<polygon fill="#8dd3c7" stroke="#000000" points="1159.712,-122 1156.712,-126 1135.712,-126 1132.712,-122 1018.288,-122 1018.288,-86 1159.712,-86 1159.712,-122"/>
<text text-anchor="middle" x="1089" y="-99.8" font-family="Times,serif" font-size="14.00" fill="#000000">MatFormFieldModule</text>
</g>
<!-- MatFormFieldModule&#45;&gt;MaterialModule -->
<g id="edge13" class="edge">
<title>MatFormFieldModule&#45;&gt;MaterialModule</title>
<path fill="none" stroke="#000000" d="M1117.125,-122.1243C1117.125,-136.7832 1117.125,-155 1117.125,-155 1117.125,-155 1378.3535,-155 1378.3535,-155"/>
<polygon fill="#000000" stroke="#000000" points="1378.3535,-158.5001 1388.3535,-155 1378.3535,-151.5001 1378.3535,-158.5001"/>
</g>
<!-- MatInputModule -->
<g id="node14" class="node">
<title>MatInputModule</title>
<polygon fill="#8dd3c7" stroke="#000000" points="1000.6513,-122 997.6513,-126 976.6513,-126 973.6513,-122 889.3487,-122 889.3487,-86 1000.6513,-86 1000.6513,-122"/>
<text text-anchor="middle" x="945" y="-99.8" font-family="Times,serif" font-size="14.00" fill="#000000">MatInputModule</text>
</g>
<!-- MatInputModule&#45;&gt;MaterialModule -->
<g id="edge14" class="edge">
<title>MatInputModule&#45;&gt;MaterialModule</title>
<path fill="none" stroke="#000000" d="M971.125,-122.2396C971.125,-137.5706 971.125,-157 971.125,-157 971.125,-157 1378.4431,-157 1378.4431,-157"/>
<polygon fill="#000000" stroke="#000000" points="1378.4431,-160.5001 1388.4431,-157 1378.4431,-153.5001 1378.4431,-160.5001"/>
</g>
<!-- MatExpansionModule -->
<g id="node15" class="node">
<title>MatExpansionModule</title>
<polygon fill="#8dd3c7" stroke="#000000" points="871.7021,-122 868.7021,-126 847.7021,-126 844.7021,-122 730.2979,-122 730.2979,-86 871.7021,-86 871.7021,-122"/>
<text text-anchor="middle" x="801" y="-99.8" font-family="Times,serif" font-size="14.00" fill="#000000">MatExpansionModule</text>
</g>
<!-- MatExpansionModule&#45;&gt;MaterialModule -->
<g id="edge15" class="edge">
<title>MatExpansionModule&#45;&gt;MaterialModule</title>
<path fill="none" stroke="#000000" d="M825.125,-122.0091C825.125,-138.0494 825.125,-159 825.125,-159 825.125,-159 1378.3355,-159 1378.3355,-159"/>
<polygon fill="#000000" stroke="#000000" points="1378.3356,-162.5001 1388.3355,-159 1378.3355,-155.5001 1378.3356,-162.5001"/>
</g>
<!-- MatMenuModule -->
<g id="node16" class="node">
<title>MatMenuModule</title>
<polygon fill="#8dd3c7" stroke="#000000" points="712.2591,-122 709.2591,-126 688.2591,-126 685.2591,-122 597.7409,-122 597.7409,-86 712.2591,-86 712.2591,-122"/>
<text text-anchor="middle" x="655" y="-99.8" font-family="Times,serif" font-size="14.00" fill="#000000">MatMenuModule</text>
</g>
<!-- MatMenuModule&#45;&gt;MaterialModule -->
<g id="edge16" class="edge">
<title>MatMenuModule&#45;&gt;MaterialModule</title>
<path fill="none" stroke="#000000" d="M677.625,-122.0352C677.625,-138.7344 677.625,-161 677.625,-161 677.625,-161 1378.2506,-161 1378.2506,-161"/>
<polygon fill="#000000" stroke="#000000" points="1378.2507,-164.5001 1388.2506,-161 1378.2506,-157.5001 1378.2507,-164.5001"/>
</g>
<!-- MatCardModule -->
<g id="node17" class="node">
<title>MatCardModule</title>
<polygon fill="#8dd3c7" stroke="#000000" points="579.8118,-122 576.8118,-126 555.8118,-126 552.8118,-122 470.1882,-122 470.1882,-86 579.8118,-86 579.8118,-122"/>
<text text-anchor="middle" x="525" y="-99.8" font-family="Times,serif" font-size="14.00" fill="#000000">MatCardModule</text>
</g>
<!-- MatCardModule&#45;&gt;MaterialModule -->
<g id="edge17" class="edge">
<title>MatCardModule&#45;&gt;MaterialModule</title>
<path fill="none" stroke="#000000" d="M545.625,-122.0225C545.625,-139.3734 545.625,-163 545.625,-163 545.625,-163 1378.2797,-163 1378.2797,-163"/>
<polygon fill="#000000" stroke="#000000" points="1378.2797,-166.5001 1388.2797,-163 1378.2796,-159.5001 1378.2797,-166.5001"/>
</g>
<!-- MatDialogModule -->
<g id="node18" class="node">
<title>MatDialogModule</title>
<polygon fill="#8dd3c7" stroke="#000000" points="452.2022,-122 449.2022,-126 428.2022,-126 425.2022,-122 331.7978,-122 331.7978,-86 452.2022,-86 452.2022,-122"/>
<text text-anchor="middle" x="392" y="-99.8" font-family="Times,serif" font-size="14.00" fill="#000000">MatDialogModule</text>
</g>
<!-- MatDialogModule&#45;&gt;MaterialModule -->
<g id="edge18" class="edge">
<title>MatDialogModule&#45;&gt;MaterialModule</title>
<path fill="none" stroke="#000000" d="M411.125,-122.302C411.125,-140.2699 411.125,-165 411.125,-165 411.125,-165 1378.3873,-165 1378.3873,-165"/>
<polygon fill="#000000" stroke="#000000" points="1378.3874,-168.5001 1388.3873,-165 1378.3873,-161.5001 1378.3874,-168.5001"/>
</g>
<!-- LayoutModule -->
<g id="node19" class="node">
<title>LayoutModule</title>
<polygon fill="#8dd3c7" stroke="#000000" points="313.7078,-122 310.7078,-126 289.7078,-126 286.7078,-122 214.2922,-122 214.2922,-86 313.7078,-86 313.7078,-122"/>
<text text-anchor="middle" x="264" y="-99.8" font-family="Times,serif" font-size="14.00" fill="#000000">LayoutModule</text>
</g>
<!-- LayoutModule&#45;&gt;MaterialModule -->
<g id="edge19" class="edge">
<title>LayoutModule&#45;&gt;MaterialModule</title>
<path fill="none" stroke="#000000" d="M281.625,-122.2222C281.625,-140.8285 281.625,-167 281.625,-167 281.625,-167 1378.3599,-167 1378.3599,-167"/>
<polygon fill="#000000" stroke="#000000" points="1378.36,-170.5001 1388.3599,-167 1378.3599,-163.5001 1378.36,-170.5001"/>
</g>
<!-- BrowserAnimationsModule -->
<g id="node20" class="node">
<title>BrowserAnimationsModule</title>
<polygon fill="#8dd3c7" stroke="#000000" points="196.3019,-122 193.3019,-126 172.3019,-126 169.3019,-122 23.6981,-122 23.6981,-86 196.3019,-86 196.3019,-122"/>
<text text-anchor="middle" x="110" y="-99.8" font-family="Times,serif" font-size="14.00" fill="#000000">BrowserAnimationsModule</text>
</g>
<!-- BrowserAnimationsModule&#45;&gt;MaterialModule -->
<g id="edge20" class="edge">
<title>BrowserAnimationsModule&#45;&gt;MaterialModule</title>
<path fill="none" stroke="#000000" d="M126.125,-122.1061C126.125,-141.3391 126.125,-169 126.125,-169 126.125,-169 1378.3754,-169 1378.3754,-169"/>
<polygon fill="#000000" stroke="#000000" points="1378.3754,-172.5001 1388.3754,-169 1378.3753,-165.5001 1378.3754,-172.5001"/>
</g>
<!-- MatToolbarModule  -->
<g id="node22" class="node">
<title>MatToolbarModule </title>
<polygon fill="#fb8072" stroke="#000000" points="2832.918,-252 2703.082,-252 2703.082,-216 2832.918,-216 2832.918,-252"/>
<text text-anchor="middle" x="2768" y="-229.8" font-family="Times,serif" font-size="14.00" fill="#000000">MatToolbarModule </text>
</g>
<!-- MaterialModule&#45;&gt;MatToolbarModule  -->
<g id="edge21" class="edge">
<title>MaterialModule&#45;&gt;MatToolbarModule </title>
<path fill="none" stroke="#000000" stroke-dasharray="5,2" d="M1495.6549,-170C1738.0496,-170 2719.125,-170 2719.125,-170 2719.125,-170 2719.125,-205.8314 2719.125,-205.8314"/>
<polygon fill="#000000" stroke="#000000" points="2715.6251,-205.8313 2719.125,-215.8314 2722.6251,-205.8314 2715.6251,-205.8313"/>
</g>
<!-- MatButtonModule  -->
<g id="node23" class="node">
<title>MatButtonModule </title>
<polygon fill="#fb8072" stroke="#000000" points="2684.7177,-252 2561.2823,-252 2561.2823,-216 2684.7177,-216 2684.7177,-252"/>
<text text-anchor="middle" x="2623" y="-229.8" font-family="Times,serif" font-size="14.00" fill="#000000">MatButtonModule </text>
</g>
<!-- MaterialModule&#45;&gt;MatButtonModule  -->
<g id="edge22" class="edge">
<title>MaterialModule&#45;&gt;MatButtonModule </title>
<path fill="none" stroke="#000000" stroke-dasharray="5,2" d="M1495.5585,-172C1720.3632,-172 2576.125,-172 2576.125,-172 2576.125,-172 2576.125,-205.7333 2576.125,-205.7333"/>
<polygon fill="#000000" stroke="#000000" points="2572.6251,-205.7333 2576.125,-215.7333 2579.6251,-205.7333 2572.6251,-205.7333"/>
</g>
<!-- MatSidenavModule  -->
<g id="node24" class="node">
<title>MatSidenavModule </title>
<polygon fill="#fb8072" stroke="#000000" points="2543.2023,-252 2412.7977,-252 2412.7977,-216 2543.2023,-216 2543.2023,-252"/>
<text text-anchor="middle" x="2478" y="-229.8" font-family="Times,serif" font-size="14.00" fill="#000000">MatSidenavModule </text>
</g>
<!-- MaterialModule&#45;&gt;MatSidenavModule  -->
<g id="edge23" class="edge">
<title>MaterialModule&#45;&gt;MatSidenavModule </title>
<path fill="none" stroke="#000000" stroke-dasharray="5,2" d="M1495.6115,-174C1701.8544,-174 2432.625,-174 2432.625,-174 2432.625,-174 2432.625,-205.998 2432.625,-205.998"/>
<polygon fill="#000000" stroke="#000000" points="2429.1251,-205.998 2432.625,-215.998 2436.1251,-205.9981 2429.1251,-205.998"/>
</g>
<!-- MatIconModule  -->
<g id="node25" class="node">
<title>MatIconModule </title>
<polygon fill="#fb8072" stroke="#000000" points="2394.4758,-252 2283.5242,-252 2283.5242,-216 2394.4758,-216 2394.4758,-252"/>
<text text-anchor="middle" x="2339" y="-229.8" font-family="Times,serif" font-size="14.00" fill="#000000">MatIconModule </text>
</g>
<!-- MaterialModule&#45;&gt;MatIconModule  -->
<g id="edge24" class="edge">
<title>MaterialModule&#45;&gt;MatIconModule </title>
<path fill="none" stroke="#000000" stroke-dasharray="5,2" d="M1495.7214,-176C1682.9838,-176 2295.625,-176 2295.625,-176 2295.625,-176 2295.625,-205.9664 2295.625,-205.9664"/>
<polygon fill="#000000" stroke="#000000" points="2292.1251,-205.9663 2295.625,-215.9664 2299.1251,-205.9664 2292.1251,-205.9663"/>
</g>
<!-- MatListModule  -->
<g id="node26" class="node">
<title>MatListModule </title>
<polygon fill="#fb8072" stroke="#000000" points="2265.8787,-252 2158.1213,-252 2158.1213,-216 2265.8787,-216 2265.8787,-252"/>
<text text-anchor="middle" x="2212" y="-229.8" font-family="Times,serif" font-size="14.00" fill="#000000">MatListModule </text>
</g>
<!-- MaterialModule&#45;&gt;MatListModule  -->
<g id="edge25" class="edge">
<title>MaterialModule&#45;&gt;MatListModule </title>
<path fill="none" stroke="#000000" stroke-dasharray="5,2" d="M1495.5775,-178C1663.8445,-178 2170.625,-178 2170.625,-178 2170.625,-178 2170.625,-205.973 2170.625,-205.973"/>
<polygon fill="#000000" stroke="#000000" points="2167.1251,-205.973 2170.625,-215.973 2174.1251,-205.973 2167.1251,-205.973"/>
</g>
<!-- MatGridListModule  -->
<g id="node27" class="node">
<title>MatGridListModule </title>
<polygon fill="#fb8072" stroke="#000000" points="2140.5358,-252 2007.4642,-252 2007.4642,-216 2140.5358,-216 2140.5358,-252"/>
<text text-anchor="middle" x="2074" y="-229.8" font-family="Times,serif" font-size="14.00" fill="#000000">MatGridListModule </text>
</g>
<!-- MaterialModule&#45;&gt;MatGridListModule  -->
<g id="edge26" class="edge">
<title>MaterialModule&#45;&gt;MatGridListModule </title>
<path fill="none" stroke="#000000" stroke-dasharray="5,2" d="M1495.5915,-180C1641.3484,-180 2034.125,-180 2034.125,-180 2034.125,-180 2034.125,-205.7181 2034.125,-205.7181"/>
<polygon fill="#000000" stroke="#000000" points="2030.6251,-205.718 2034.125,-215.7181 2037.6251,-205.7181 2030.6251,-205.718"/>
</g>
<!-- MatProgressSpinnerModule  -->
<g id="node28" class="node">
<title>MatProgressSpinnerModule </title>
<polygon fill="#fb8072" stroke="#000000" points="1989.856,-252 1812.144,-252 1812.144,-216 1989.856,-216 1989.856,-252"/>
<text text-anchor="middle" x="1901" y="-229.8" font-family="Times,serif" font-size="14.00" fill="#000000">MatProgressSpinnerModule </text>
</g>
<!-- MaterialModule&#45;&gt;MatProgressSpinnerModule  -->
<g id="edge27" class="edge">
<title>MaterialModule&#45;&gt;MatProgressSpinnerModule </title>
<path fill="none" stroke="#000000" stroke-dasharray="5,2" d="M1495.6997,-182C1609.095,-182 1862.625,-182 1862.625,-182 1862.625,-182 1862.625,-205.8129 1862.625,-205.8129"/>
<polygon fill="#000000" stroke="#000000" points="1859.1251,-205.8129 1862.625,-215.8129 1866.1251,-205.813 1859.1251,-205.8129"/>
</g>
<!-- MatTableModule  -->
<g id="node29" class="node">
<title>MatTableModule </title>
<polygon fill="#fb8072" stroke="#000000" points="1794.973,-252 1677.027,-252 1677.027,-216 1794.973,-216 1794.973,-252"/>
<text text-anchor="middle" x="1736" y="-229.8" font-family="Times,serif" font-size="14.00" fill="#000000">MatTableModule </text>
</g>
<!-- MaterialModule&#45;&gt;MatTableModule  -->
<g id="edge28" class="edge">
<title>MaterialModule&#45;&gt;MatTableModule </title>
<path fill="none" stroke="#000000" stroke-dasharray="5,2" d="M1495.5888,-184C1570.9448,-184 1699.125,-184 1699.125,-184 1699.125,-184 1699.125,-205.9489 1699.125,-205.9489"/>
<polygon fill="#000000" stroke="#000000" points="1695.6251,-205.9488 1699.125,-215.9489 1702.6251,-205.9489 1695.6251,-205.9488"/>
</g>
<!-- MatPaginatorModule  -->
<g id="node30" class="node">
<title>MatPaginatorModule </title>
<polygon fill="#fb8072" stroke="#000000" points="1659.7534,-252 1520.2466,-252 1520.2466,-216 1659.7534,-216 1659.7534,-252"/>
<text text-anchor="middle" x="1590" y="-229.8" font-family="Times,serif" font-size="14.00" fill="#000000">MatPaginatorModule </text>
</g>
<!-- MaterialModule&#45;&gt;MatPaginatorModule  -->
<g id="edge29" class="edge">
<title>MaterialModule&#45;&gt;MatPaginatorModule </title>
<path fill="none" stroke="#000000" stroke-dasharray="5,2" d="M1495.6737,-186C1524.6815,-186 1554.625,-186 1554.625,-186 1554.625,-186 1554.625,-205.8533 1554.625,-205.8533"/>
<polygon fill="#000000" stroke="#000000" points="1551.1251,-205.8532 1554.625,-215.8533 1558.1251,-205.8533 1551.1251,-205.8532"/>
</g>
<!-- MatSelectModule  -->
<g id="node31" class="node">
<title>MatSelectModule </title>
<polygon fill="#fb8072" stroke="#000000" points="1501.8074,-252 1382.1926,-252 1382.1926,-216 1501.8074,-216 1501.8074,-252"/>
<text text-anchor="middle" x="1442" y="-229.8" font-family="Times,serif" font-size="14.00" fill="#000000">MatSelectModule </text>
</g>
<!-- MaterialModule&#45;&gt;MatSelectModule  -->
<g id="edge30" class="edge">
<title>MaterialModule&#45;&gt;MatSelectModule </title>
<path fill="none" stroke="#000000" stroke-dasharray="5,2" d="M1442,-187.1061C1442,-187.1061 1442,-205.991 1442,-205.991"/>
<polygon fill="#000000" stroke="#000000" points="1438.5001,-205.9909 1442,-215.991 1445.5001,-205.991 1438.5001,-205.9909"/>
</g>
<!-- MatTooltipModule  -->
<g id="node32" class="node">
<title>MatTooltipModule </title>
<polygon fill="#fb8072" stroke="#000000" points="1364.3241,-252 1237.6759,-252 1237.6759,-216 1364.3241,-216 1364.3241,-252"/>
<text text-anchor="middle" x="1301" y="-229.8" font-family="Times,serif" font-size="14.00" fill="#000000">MatTooltipModule </text>
</g>
<!-- MaterialModule&#45;&gt;MatTooltipModule  -->
<g id="edge31" class="edge">
<title>MaterialModule&#45;&gt;MatTooltipModule </title>
<path fill="none" stroke="#000000" stroke-dasharray="5,2" d="M1388.2885,-186C1364.4246,-186 1341.6292,-186 1341.6292,-186 1341.6292,-186 1341.6292,-205.8533 1341.6292,-205.8533"/>
<polygon fill="#000000" stroke="#000000" points="1338.1293,-205.8532 1341.6292,-215.8533 1345.1293,-205.8533 1338.1293,-205.8532"/>
</g>
<!-- MatFormFieldModule  -->
<g id="node33" class="node">
<title>MatFormFieldModule </title>
<polygon fill="#fb8072" stroke="#000000" points="1219.2121,-252 1074.7879,-252 1074.7879,-216 1219.2121,-216 1219.2121,-252"/>
<text text-anchor="middle" x="1147" y="-229.8" font-family="Times,serif" font-size="14.00" fill="#000000">MatFormFieldModule </text>
</g>
<!-- MaterialModule&#45;&gt;MatFormFieldModule  -->
<g id="edge32" class="edge">
<title>MaterialModule&#45;&gt;MatFormFieldModule </title>
<path fill="none" stroke="#000000" stroke-dasharray="5,2" d="M1388.5293,-184C1316.806,-184 1198.347,-184 1198.347,-184 1198.347,-184 1198.347,-205.9489 1198.347,-205.9489"/>
<polygon fill="#000000" stroke="#000000" points="1194.847,-205.9488 1198.347,-215.9489 1201.847,-205.9489 1194.847,-205.9488"/>
</g>
<!-- MatInputModule  -->
<g id="node34" class="node">
<title>MatInputModule </title>
<polygon fill="#fb8072" stroke="#000000" points="1056.6509,-252 941.3491,-252 941.3491,-216 1056.6509,-216 1056.6509,-252"/>
<text text-anchor="middle" x="999" y="-229.8" font-family="Times,serif" font-size="14.00" fill="#000000">MatInputModule </text>
</g>
<!-- MaterialModule&#45;&gt;MatInputModule  -->
<g id="edge33" class="edge">
<title>MaterialModule&#45;&gt;MatInputModule </title>
<path fill="none" stroke="#000000" stroke-dasharray="5,2" d="M1388.2835,-182C1278.2474,-182 1037.4848,-182 1037.4848,-182 1037.4848,-182 1037.4848,-205.8129 1037.4848,-205.8129"/>
<polygon fill="#000000" stroke="#000000" points="1033.9848,-205.8129 1037.4848,-215.8129 1040.9848,-205.813 1033.9848,-205.8129"/>
</g>
<!-- MatExpansionModule  -->
<g id="node35" class="node">
<title>MatExpansionModule </title>
<polygon fill="#fb8072" stroke="#000000" points="923.2023,-252 778.7977,-252 778.7977,-216 923.2023,-216 923.2023,-252"/>
<text text-anchor="middle" x="851" y="-229.8" font-family="Times,serif" font-size="14.00" fill="#000000">MatExpansionModule </text>
</g>
<!-- MaterialModule&#45;&gt;MatExpansionModule  -->
<g id="edge34" class="edge">
<title>MaterialModule&#45;&gt;MatExpansionModule </title>
<path fill="none" stroke="#000000" stroke-dasharray="5,2" d="M1388.1786,-180C1252.3229,-180 906.2628,-180 906.2628,-180 906.2628,-180 906.2628,-205.7181 906.2628,-205.7181"/>
<polygon fill="#000000" stroke="#000000" points="902.7629,-205.718 906.2628,-215.7181 909.7629,-205.7181 902.7629,-205.718"/>
</g>
<!-- MatMenuModule  -->
<g id="node36" class="node">
<title>MatMenuModule </title>
<polygon fill="#fb8072" stroke="#000000" points="761.2591,-252 642.7409,-252 642.7409,-216 761.2591,-216 761.2591,-252"/>
<text text-anchor="middle" x="702" y="-229.8" font-family="Times,serif" font-size="14.00" fill="#000000">MatMenuModule </text>
</g>
<!-- MaterialModule&#45;&gt;MatMenuModule  -->
<g id="edge35" class="edge">
<title>MaterialModule&#45;&gt;MatMenuModule </title>
<path fill="none" stroke="#000000" stroke-dasharray="5,2" d="M1388.5236,-178C1225.4913,-178 745.7642,-178 745.7642,-178 745.7642,-178 745.7642,-205.973 745.7642,-205.973"/>
<polygon fill="#000000" stroke="#000000" points="742.2643,-205.973 745.7642,-215.973 749.2643,-205.973 742.2643,-205.973"/>
</g>
<!-- MatCardModule  -->
<g id="node37" class="node">
<title>MatCardModule </title>
<polygon fill="#fb8072" stroke="#000000" points="624.3116,-252 511.6884,-252 511.6884,-216 624.3116,-216 624.3116,-252"/>
<text text-anchor="middle" x="568" y="-229.8" font-family="Times,serif" font-size="14.00" fill="#000000">MatCardModule </text>
</g>
<!-- MaterialModule&#45;&gt;MatCardModule  -->
<g id="edge36" class="edge">
<title>MaterialModule&#45;&gt;MatCardModule </title>
<path fill="none" stroke="#000000" stroke-dasharray="5,2" d="M1388.4358,-176C1204.6603,-176 611.0132,-176 611.0132,-176 611.0132,-176 611.0132,-205.9664 611.0132,-205.9664"/>
<polygon fill="#000000" stroke="#000000" points="607.5132,-205.9663 611.0132,-215.9664 614.5132,-205.9664 607.5132,-205.9663"/>
</g>
<!-- MatDialogModule  -->
<g id="node38" class="node">
<title>MatDialogModule </title>
<polygon fill="#fb8072" stroke="#000000" points="493.7024,-252 370.2976,-252 370.2976,-216 493.7024,-216 493.7024,-252"/>
<text text-anchor="middle" x="432" y="-229.8" font-family="Times,serif" font-size="14.00" fill="#000000">MatDialogModule </text>
</g>
<!-- MaterialModule&#45;&gt;MatDialogModule  -->
<g id="edge37" class="edge">
<title>MaterialModule&#45;&gt;MatDialogModule </title>
<path fill="none" stroke="#000000" stroke-dasharray="5,2" d="M1388.3346,-174C1186.1847,-174 482.0976,-174 482.0976,-174 482.0976,-174 482.0976,-205.998 482.0976,-205.998"/>
<polygon fill="#000000" stroke="#000000" points="478.5976,-205.9981 482.0977,-215.998 485.5976,-205.998 478.5976,-205.9981"/>
</g>
<!-- LayoutModule  -->
<g id="node39" class="node">
<title>LayoutModule </title>
<polygon fill="#fb8072" stroke="#000000" points="352.208,-252 249.792,-252 249.792,-216 352.208,-216 352.208,-252"/>
<text text-anchor="middle" x="301" y="-229.8" font-family="Times,serif" font-size="14.00" fill="#000000">LayoutModule </text>
</g>
<!-- MaterialModule&#45;&gt;LayoutModule  -->
<g id="edge38" class="edge">
<title>MaterialModule&#45;&gt;LayoutModule </title>
<path fill="none" stroke="#000000" stroke-dasharray="5,2" d="M1388.2063,-172C1167.3851,-172 342.1264,-172 342.1264,-172 342.1264,-172 342.1264,-205.7333 342.1264,-205.7333"/>
<polygon fill="#000000" stroke="#000000" points="338.6265,-205.7333 342.1264,-215.7333 345.6265,-205.7333 338.6265,-205.7333"/>
</g>
<!-- BrowserAnimationsModule  -->
<g id="node40" class="node">
<title>BrowserAnimationsModule </title>
<polygon fill="#fb8072" stroke="#000000" points="231.8017,-252 56.1983,-252 56.1983,-216 231.8017,-216 231.8017,-252"/>
<text text-anchor="middle" x="144" y="-229.8" font-family="Times,serif" font-size="14.00" fill="#000000">BrowserAnimationsModule </text>
</g>
<!-- MaterialModule&#45;&gt;BrowserAnimationsModule  -->
<g id="edge39" class="edge">
<title>MaterialModule&#45;&gt;BrowserAnimationsModule </title>
<path fill="none" stroke="#000000" stroke-dasharray="5,2" d="M1388.4499,-170C1153.2098,-170 223.1485,-170 223.1485,-170 223.1485,-170 223.1485,-205.8314 223.1485,-205.8314"/>
<polygon fill="#000000" stroke="#000000" points="219.6486,-205.8313 223.1485,-215.8314 226.6486,-205.8314 219.6486,-205.8313"/>
</g>
</g>
</svg>
