<?xml version="1.0" encoding="UTF-8" standalone="no"?>
<!DOCTYPE svg PUBLIC "-//W3C//DTD SVG 1.1//EN"
 "http://www.w3.org/Graphics/SVG/1.1/DTD/svg11.dtd">
<!-- Generated by graphviz version 2.40.1 (20161225.0304)
 -->
<!-- Title: dependencies Pages: 1 -->
<svg width="1976pt" height="284pt"
 viewBox="0.00 0.00 1976.00 284.00" xmlns="http://www.w3.org/2000/svg" xmlns:xlink="http://www.w3.org/1999/xlink">
<g id="graph0" class="graph" transform="scale(1 1) rotate(0) translate(4 280)">
<title>dependencies</title>
<polygon fill="#ffffff" stroke="transparent" points="-4,4 -4,-280 1972,-280 1972,4 -4,4"/>
<text text-anchor="start" x="963.0091" y="-42.4" font-family="sans-serif" font-weight="bold" font-size="14.00" fill="#000000">Legend</text>
<polygon fill="#ffffb3" stroke="transparent" points="750,-10 750,-30 770,-30 770,-10 750,-10"/>
<text text-anchor="start" x="773.629" y="-15.4" font-family="sans-serif" font-size="14.00" fill="#000000"> &#160;Declarations</text>
<polygon fill="#8dd3c7" stroke="transparent" points="863,-10 863,-30 883,-30 883,-10 863,-10"/>
<text text-anchor="start" x="886.7251" y="-15.4" font-family="sans-serif" font-size="14.00" fill="#000000"> &#160;Module</text>
<polygon fill="#80b1d3" stroke="transparent" points="949,-10 949,-30 969,-30 969,-10 949,-10"/>
<text text-anchor="start" x="972.7812" y="-15.4" font-family="sans-serif" font-size="14.00" fill="#000000"> &#160;Bootstrap</text>
<polygon fill="#fdb462" stroke="transparent" points="1046,-10 1046,-30 1066,-30 1066,-10 1046,-10"/>
<text text-anchor="start" x="1069.6732" y="-15.4" font-family="sans-serif" font-size="14.00" fill="#000000"> &#160;Providers</text>
<polygon fill="#fb8072" stroke="transparent" points="1142,-10 1142,-30 1162,-30 1162,-10 1142,-10"/>
<text text-anchor="start" x="1165.7258" y="-15.4" font-family="sans-serif" font-size="14.00" fill="#000000"> &#160;Exports</text>
<g id="clust1" class="cluster">
<title>cluster_GameModule</title>
<polygon fill="none" stroke="#000000" stroke-dasharray="1,5" points="8,-70 8,-268 1960,-268 1960,-70 8,-70"/>
</g>
<g id="clust2" class="cluster">
<title>cluster_GameModule_declarations</title>
<polygon fill="none" stroke="#000000" points="436,-78 436,-130 1952,-130 1952,-78 436,-78"/>
</g>
<g id="clust11" class="cluster">
<title>cluster_GameModule_imports</title>
<polygon fill="none" stroke="#000000" points="16,-78 16,-130 428,-130 428,-78 16,-78"/>
</g>
<g id="clust12" class="cluster">
<title>cluster_GameModule_exports</title>
<polygon fill="none" stroke="#000000" points="16,-208 16,-260 1561,-260 1561,-208 16,-208"/>
</g>
<g id="clust13" class="cluster">
<title>cluster_GameModule_bootstrap</title>
<polygon fill="none" stroke="#000000" points="1569,-208 1569,-260 1693,-260 1693,-208 1569,-208"/>
</g>
<!-- GameComponent -->
<g id="node1" class="node">
<title>GameComponent</title>
<polygon fill="#ffffb3" stroke="#000000" points="1944.2591,-122 1829.7409,-122 1829.7409,-86 1944.2591,-86 1944.2591,-122"/>
<text text-anchor="middle" x="1887" y="-99.8" font-family="Times,serif" font-size="14.00" fill="#000000">GameComponent</text>
</g>
<!-- GameModule -->
<g id="node9" class="node">
<title>GameModule</title>
<polygon fill="#8dd3c7" stroke="#000000" points="973.4762,-187 970.4762,-191 949.4762,-191 946.4762,-187 880.5238,-187 880.5238,-151 973.4762,-151 973.4762,-187"/>
<text text-anchor="middle" x="927" y="-164.8" font-family="Times,serif" font-size="14.00" fill="#000000">GameModule</text>
</g>
<!-- GameComponent&#45;&gt;GameModule -->
<g id="edge1" class="edge">
<title>GameComponent&#45;&gt;GameModule</title>
<path fill="none" stroke="#000000" d="M1887,-122.1061C1887,-141.3391 1887,-169 1887,-169 1887,-169 983.6272,-169 983.6272,-169"/>
<polygon fill="#000000" stroke="#000000" points="983.6273,-165.5001 973.6272,-169 983.6272,-172.5001 983.6273,-165.5001"/>
</g>
<!-- GameMenuComponent -->
<g id="node2" class="node">
<title>GameMenuComponent</title>
<polygon fill="#ffffb3" stroke="#000000" points="1811.9186,-122 1664.0814,-122 1664.0814,-86 1811.9186,-86 1811.9186,-122"/>
<text text-anchor="middle" x="1738" y="-99.8" font-family="Times,serif" font-size="14.00" fill="#000000">GameMenuComponent</text>
</g>
<!-- GameMenuComponent&#45;&gt;GameModule -->
<g id="edge2" class="edge">
<title>GameMenuComponent&#45;&gt;GameModule</title>
<path fill="none" stroke="#000000" d="M1674.8803,-122.2667C1674.8803,-140.5552 1674.8803,-166 1674.8803,-166 1674.8803,-166 983.5007,-166 983.5007,-166"/>
<polygon fill="#000000" stroke="#000000" points="983.5007,-162.5001 973.5007,-166 983.5007,-169.5001 983.5007,-162.5001"/>
</g>
<!-- GameMenuItemComponent -->
<g id="node3" class="node">
<title>GameMenuItemComponent</title>
<polygon fill="#ffffb3" stroke="#000000" points="1646.5744,-122 1473.4256,-122 1473.4256,-86 1646.5744,-86 1646.5744,-122"/>
<text text-anchor="middle" x="1560" y="-99.8" font-family="Times,serif" font-size="14.00" fill="#000000">GameMenuItemComponent</text>
</g>
<!-- GameMenuItemComponent&#45;&gt;GameModule -->
<g id="edge3" class="edge">
<title>GameMenuItemComponent&#45;&gt;GameModule</title>
<path fill="none" stroke="#000000" d="M1513.2961,-122.0336C1513.2961,-139.0597 1513.2961,-162 1513.2961,-162 1513.2961,-162 983.4957,-162 983.4957,-162"/>
<polygon fill="#000000" stroke="#000000" points="983.4958,-158.5001 973.4957,-162 983.4957,-165.5001 983.4958,-158.5001"/>
</g>
<!-- GameMenuItemTierComponent -->
<g id="node4" class="node">
<title>GameMenuItemTierComponent</title>
<polygon fill="#ffffb3" stroke="#000000" points="1455.3932,-122 1258.6068,-122 1258.6068,-86 1455.3932,-86 1455.3932,-122"/>
<text text-anchor="middle" x="1357" y="-99.8" font-family="Times,serif" font-size="14.00" fill="#000000">GameMenuItemTierComponent</text>
</g>
<!-- GameMenuItemTierComponent&#45;&gt;GameModule -->
<g id="edge4" class="edge">
<title>GameMenuItemTierComponent&#45;&gt;GameModule</title>
<path fill="none" stroke="#000000" d="M1315.847,-122.0091C1315.847,-138.0494 1315.847,-159 1315.847,-159 1315.847,-159 983.5178,-159 983.5178,-159"/>
<polygon fill="#000000" stroke="#000000" points="983.5178,-155.5001 973.5178,-159 983.5178,-162.5001 983.5178,-155.5001"/>
</g>
<!-- GameSecondaryMenuComponent -->
<g id="node5" class="node">
<title>GameSecondaryMenuComponent</title>
<polygon fill="#ffffb3" stroke="#000000" points="1241.0056,-122 1034.9944,-122 1034.9944,-86 1241.0056,-86 1241.0056,-122"/>
<text text-anchor="middle" x="1138" y="-99.8" font-family="Times,serif" font-size="14.00" fill="#000000">GameSecondaryMenuComponent</text>
</g>
<!-- GameSecondaryMenuComponent&#45;&gt;GameModule -->
<g id="edge5" class="edge">
<title>GameSecondaryMenuComponent&#45;&gt;GameModule</title>
<path fill="none" stroke="#000000" d="M1043.847,-122.1243C1043.847,-136.7832 1043.847,-155 1043.847,-155 1043.847,-155 983.5168,-155 983.5168,-155"/>
<polygon fill="#000000" stroke="#000000" points="983.5168,-151.5001 973.5168,-155 983.5167,-158.5001 983.5168,-151.5001"/>
</g>
<!-- GameSecondaryMenuItemComponent -->
<g id="node6" class="node">
<title>GameSecondaryMenuItemComponent</title>
<polygon fill="#ffffb3" stroke="#000000" points="1017.1615,-122 784.8385,-122 784.8385,-86 1017.1615,-86 1017.1615,-122"/>
<text text-anchor="middle" x="901" y="-99.8" font-family="Times,serif" font-size="14.00" fill="#000000">GameSecondaryMenuItemComponent</text>
</g>
<!-- GameSecondaryMenuItemComponent&#45;&gt;GameModule -->
<g id="edge6" class="edge">
<title>GameSecondaryMenuItemComponent&#45;&gt;GameModule</title>
<path fill="none" stroke="#000000" d="M927,-122.1061C927,-122.1061 927,-140.991 927,-140.991"/>
<polygon fill="#000000" stroke="#000000" points="923.5001,-140.9909 927,-150.991 930.5001,-140.991 923.5001,-140.9909"/>
</g>
<!-- MyBoardComponent -->
<g id="node7" class="node">
<title>MyBoardComponent</title>
<polygon fill="#ffffb3" stroke="#000000" points="766.4888,-122 631.5112,-122 631.5112,-86 766.4888,-86 766.4888,-122"/>
<text text-anchor="middle" x="699" y="-99.8" font-family="Times,serif" font-size="14.00" fill="#000000">MyBoardComponent</text>
</g>
<!-- MyBoardComponent&#45;&gt;GameModule -->
<g id="edge7" class="edge">
<title>MyBoardComponent&#45;&gt;GameModule</title>
<path fill="none" stroke="#000000" d="M699,-122.1243C699,-136.7832 699,-155 699,-155 699,-155 870.3106,-155 870.3106,-155"/>
<polygon fill="#000000" stroke="#000000" points="870.3107,-158.5001 880.3106,-155 870.3106,-151.5001 870.3107,-158.5001"/>
</g>
<!-- OponentsBoardComponent -->
<g id="node8" class="node">
<title>OponentsBoardComponent</title>
<polygon fill="#ffffb3" stroke="#000000" points="613.7007,-122 444.2993,-122 444.2993,-86 613.7007,-86 613.7007,-122"/>
<text text-anchor="middle" x="529" y="-99.8" font-family="Times,serif" font-size="14.00" fill="#000000">OponentsBoardComponent</text>
</g>
<!-- OponentsBoardComponent&#45;&gt;GameModule -->
<g id="edge8" class="edge">
<title>OponentsBoardComponent&#45;&gt;GameModule</title>
<path fill="none" stroke="#000000" d="M552.687,-122.0091C552.687,-138.0494 552.687,-159 552.687,-159 552.687,-159 870.3498,-159 870.3498,-159"/>
<polygon fill="#000000" stroke="#000000" points="870.3499,-162.5001 880.3498,-159 870.3498,-155.5001 870.3499,-162.5001"/>
</g>
<!-- GameComponent  -->
<g id="node13" class="node">
<title>GameComponent </title>
<polygon fill="#fb8072" stroke="#000000" points="1553.2591,-252 1434.7409,-252 1434.7409,-216 1553.2591,-216 1553.2591,-252"/>
<text text-anchor="middle" x="1494" y="-229.8" font-family="Times,serif" font-size="14.00" fill="#000000">GameComponent </text>
</g>
<!-- GameModule&#45;&gt;GameComponent  -->
<g id="edge12" class="edge">
<title>GameModule&#45;&gt;GameComponent </title>
<path fill="none" stroke="#000000" stroke-dasharray="5,2" d="M973.8857,-177C1101.4043,-177 1445.0335,-177 1445.0335,-177 1445.0335,-177 1445.0335,-205.9648 1445.0335,-205.9648"/>
<polygon fill="#000000" stroke="#000000" points="1441.5336,-205.9648 1445.0335,-215.9648 1448.5336,-205.9649 1441.5336,-205.9648"/>
</g>
<!-- GameMenuComponent  -->
<g id="node14" class="node">
<title>GameMenuComponent </title>
<polygon fill="#fb8072" stroke="#000000" points="1416.418,-252 1265.582,-252 1265.582,-216 1416.418,-216 1416.418,-252"/>
<text text-anchor="middle" x="1341" y="-229.8" font-family="Times,serif" font-size="14.00" fill="#000000">GameMenuComponent </text>
</g>
<!-- GameModule&#45;&gt;GameMenuComponent  -->
<g id="edge13" class="edge">
<title>GameModule&#45;&gt;GameMenuComponent </title>
<path fill="none" stroke="#000000" stroke-dasharray="5,2" d="M973.5813,-180C1086.6026,-180 1366.153,-180 1366.153,-180 1366.153,-180 1366.153,-205.7181 1366.153,-205.7181"/>
<polygon fill="#000000" stroke="#000000" points="1362.6531,-205.718 1366.153,-215.7181 1369.6531,-205.7181 1362.6531,-205.718"/>
</g>
<!-- GameMenuItemComponent  -->
<g id="node15" class="node">
<title>GameMenuItemComponent </title>
<polygon fill="#fb8072" stroke="#000000" points="1247.0749,-252 1070.9251,-252 1070.9251,-216 1247.0749,-216 1247.0749,-252"/>
<text text-anchor="middle" x="1159" y="-229.8" font-family="Times,serif" font-size="14.00" fill="#000000">GameMenuItemComponent </text>
</g>
<!-- GameModule&#45;&gt;GameMenuItemComponent  -->
<g id="edge14" class="edge">
<title>GameModule&#45;&gt;GameMenuItemComponent </title>
<path fill="none" stroke="#000000" stroke-dasharray="5,2" d="M973.6141,-184C1040.5652,-184 1155.9827,-184 1155.9827,-184 1155.9827,-184 1155.9827,-205.9489 1155.9827,-205.9489"/>
<polygon fill="#000000" stroke="#000000" points="1152.4827,-205.9488 1155.9827,-215.9489 1159.4827,-205.9489 1152.4827,-205.9488"/>
</g>
<!-- GameMenuItemTierComponent  -->
<g id="node16" class="node">
<title>GameMenuItemTierComponent </title>
<polygon fill="#fb8072" stroke="#000000" points="1052.8928,-252 853.1072,-252 853.1072,-216 1052.8928,-216 1052.8928,-252"/>
<text text-anchor="middle" x="953" y="-229.8" font-family="Times,serif" font-size="14.00" fill="#000000">GameMenuItemTierComponent </text>
</g>
<!-- GameModule&#45;&gt;GameMenuItemTierComponent  -->
<g id="edge15" class="edge">
<title>GameModule&#45;&gt;GameMenuItemTierComponent </title>
<path fill="none" stroke="#000000" stroke-dasharray="5,2" d="M927,-187.1061C927,-187.1061 927,-205.991 927,-205.991"/>
<polygon fill="#000000" stroke="#000000" points="923.5001,-205.9909 927,-215.991 930.5001,-205.991 923.5001,-205.9909"/>
</g>
<!-- GameSecondaryMenuComponent  -->
<g id="node17" class="node">
<title>GameSecondaryMenuComponent </title>
<polygon fill="#fb8072" stroke="#000000" points="835.005,-252 624.995,-252 624.995,-216 835.005,-216 835.005,-252"/>
<text text-anchor="middle" x="730" y="-229.8" font-family="Times,serif" font-size="14.00" fill="#000000">GameSecondaryMenuComponent </text>
</g>
<!-- GameModule&#45;&gt;GameSecondaryMenuComponent  -->
<g id="edge16" class="edge">
<title>GameModule&#45;&gt;GameSecondaryMenuComponent </title>
<path fill="none" stroke="#000000" stroke-dasharray="5,2" d="M880.4068,-184C847.7683,-184 809.9609,-184 809.9609,-184 809.9609,-184 809.9609,-205.9489 809.9609,-205.9489"/>
<polygon fill="#000000" stroke="#000000" points="806.461,-205.9488 809.9609,-215.9489 813.461,-205.9489 806.461,-205.9488"/>
</g>
<!-- GameSecondaryMenuItemComponent  -->
<g id="node18" class="node">
<title>GameSecondaryMenuItemComponent </title>
<polygon fill="#fb8072" stroke="#000000" points="606.6616,-252 371.3384,-252 371.3384,-216 606.6616,-216 606.6616,-252"/>
<text text-anchor="middle" x="489" y="-229.8" font-family="Times,serif" font-size="14.00" fill="#000000">GameSecondaryMenuItemComponent </text>
</g>
<!-- GameModule&#45;&gt;GameSecondaryMenuItemComponent  -->
<g id="edge17" class="edge">
<title>GameModule&#45;&gt;GameSecondaryMenuItemComponent </title>
<path fill="none" stroke="#000000" stroke-dasharray="5,2" d="M880.332,-180C769.2855,-180 498.5434,-180 498.5434,-180 498.5434,-180 498.5434,-205.7181 498.5434,-205.7181"/>
<polygon fill="#000000" stroke="#000000" points="495.0435,-205.718 498.5434,-215.7181 502.0435,-205.7181 495.0435,-205.718"/>
</g>
<!-- MyBoardComponent  -->
<g id="node19" class="node">
<title>MyBoardComponent </title>
<polygon fill="#fb8072" stroke="#000000" points="353.4897,-252 214.5103,-252 214.5103,-216 353.4897,-216 353.4897,-252"/>
<text text-anchor="middle" x="284" y="-229.8" font-family="Times,serif" font-size="14.00" fill="#000000">MyBoardComponent </text>
</g>
<!-- GameModule&#45;&gt;MyBoardComponent  -->
<g id="edge18" class="edge">
<title>GameModule&#45;&gt;MyBoardComponent </title>
<path fill="none" stroke="#000000" stroke-dasharray="5,2" d="M880.2098,-177C739.6388,-177 330.7053,-177 330.7053,-177 330.7053,-177 330.7053,-205.9648 330.7053,-205.9648"/>
<polygon fill="#000000" stroke="#000000" points="327.2054,-205.9648 330.7053,-215.9648 334.2054,-205.9649 327.2054,-205.9648"/>
</g>
<!-- OponentsBoardComponent  -->
<g id="node20" class="node">
<title>OponentsBoardComponent </title>
<polygon fill="#fb8072" stroke="#000000" points="196.2009,-252 23.7991,-252 23.7991,-216 196.2009,-216 196.2009,-252"/>
<text text-anchor="middle" x="110" y="-229.8" font-family="Times,serif" font-size="14.00" fill="#000000">OponentsBoardComponent </text>
</g>
<!-- GameModule&#45;&gt;OponentsBoardComponent  -->
<g id="edge19" class="edge">
<title>GameModule&#45;&gt;OponentsBoardComponent </title>
<path fill="none" stroke="#000000" stroke-dasharray="5,2" d="M880.334,-173C718.3115,-173 189.9325,-173 189.9325,-173 189.9325,-173 189.9325,-205.698 189.9325,-205.698"/>
<polygon fill="#000000" stroke="#000000" points="186.4326,-205.698 189.9325,-215.698 193.4326,-205.698 186.4326,-205.698"/>
</g>
<!-- AppComponent  -->
<g id="node21" class="node">
<title>AppComponent </title>
<polygon fill="#80b1d3" stroke="#000000" points="1685.439,-252 1576.561,-252 1576.561,-216 1685.439,-216 1685.439,-252"/>
<text text-anchor="middle" x="1631" y="-229.8" font-family="Times,serif" font-size="14.00" fill="#000000">AppComponent </text>
</g>
<!-- GameModule&#45;&gt;AppComponent  -->
<g id="edge20" class="edge">
<title>GameModule&#45;&gt;AppComponent </title>
<path fill="none" stroke="#000000" stroke-dasharray="1,5" d="M973.5126,-173C1127.5829,-173 1611.5339,-173 1611.5339,-173 1611.5339,-173 1611.5339,-205.698 1611.5339,-205.698"/>
<polygon fill="#000000" stroke="#000000" points="1608.0339,-205.698 1611.5339,-215.698 1615.0339,-205.698 1608.0339,-205.698"/>
</g>
<!-- CommonModule -->
<g id="node10" class="node">
<title>CommonModule</title>
<polygon fill="#8dd3c7" stroke="#000000" points="419.6681,-122 416.6681,-126 395.6681,-126 392.6681,-122 308.3319,-122 308.3319,-86 419.6681,-86 419.6681,-122"/>
<text text-anchor="middle" x="364" y="-99.8" font-family="Times,serif" font-size="14.00" fill="#000000">CommonModule</text>
</g>
<!-- CommonModule&#45;&gt;GameModule -->
<g id="edge9" class="edge">
<title>CommonModule&#45;&gt;GameModule</title>
<path fill="none" stroke="#000000" d="M395.5016,-122.0336C395.5016,-139.0597 395.5016,-162 395.5015,-162 395.5015,-162 870.2989,-162 870.2989,-162"/>
<polygon fill="#000000" stroke="#000000" points="870.2989,-165.5001 880.2989,-162 870.2988,-158.5001 870.2989,-165.5001"/>
</g>
<!-- MaterialModule -->
<g id="node11" class="node">
<title>MaterialModule</title>
<polygon fill="#8dd3c7" stroke="#000000" points="290.4706,-122 287.4706,-126 266.4706,-126 263.4706,-122 183.5294,-122 183.5294,-86 290.4706,-86 290.4706,-122"/>
<text text-anchor="middle" x="237" y="-99.8" font-family="Times,serif" font-size="14.00" fill="#000000">MaterialModule</text>
</g>
<!-- MaterialModule&#45;&gt;GameModule -->
<g id="edge10" class="edge">
<title>MaterialModule&#45;&gt;GameModule</title>
<path fill="none" stroke="#000000" d="M252.6205,-122.2667C252.6205,-140.5552 252.6205,-166 252.6205,-166 252.6205,-166 870.3811,-166 870.3811,-166"/>
<polygon fill="#000000" stroke="#000000" points="870.3811,-169.5001 880.3811,-166 870.3811,-162.5001 870.3811,-169.5001"/>
</g>
<!-- FontAwesomeModule -->
<g id="node12" class="node">
<title>FontAwesomeModule</title>
<polygon fill="#8dd3c7" stroke="#000000" points="165.7007,-122 162.7007,-126 141.7007,-126 138.7007,-122 24.2993,-122 24.2993,-86 165.7007,-86 165.7007,-122"/>
<text text-anchor="middle" x="95" y="-99.8" font-family="Times,serif" font-size="14.00" fill="#000000">FontAwesomeModule</text>
</g>
<!-- FontAwesomeModule&#45;&gt;GameModule -->
<g id="edge11" class="edge">
<title>FontAwesomeModule&#45;&gt;GameModule</title>
<path fill="none" stroke="#000000" d="M95,-122.1061C95,-141.3391 95,-169 95,-169 95,-169 870.4853,-169 870.4853,-169"/>
<polygon fill="#000000" stroke="#000000" points="870.4853,-172.5001 880.4853,-169 870.4852,-165.5001 870.4853,-172.5001"/>
</g>
</g>
</svg>
