<?xml version="1.0" encoding="UTF-8" standalone="no"?>
<!DOCTYPE svg PUBLIC "-//W3C//DTD SVG 1.1//EN"
 "http://www.w3.org/Graphics/SVG/1.1/DTD/svg11.dtd">
<!-- Generated by graphviz version 2.40.1 (20161225.0304)
 -->
<!-- Title: dependencies Pages: 1 -->
<svg width="6864pt" height="284pt"
 viewBox="0.00 0.00 6864.00 284.00" xmlns="http://www.w3.org/2000/svg" xmlns:xlink="http://www.w3.org/1999/xlink">
<g id="graph0" class="graph" transform="scale(1 1) rotate(0) translate(4 280)">
<title>dependencies</title>
<polygon fill="#ffffff" stroke="transparent" points="-4,4 -4,-280 6860,-280 6860,4 -4,4"/>
<text text-anchor="start" x="3407.0091" y="-42.4" font-family="sans-serif" font-weight="bold" font-size="14.00" fill="#000000">Legend</text>
<polygon fill="#ffffb3" stroke="transparent" points="3194,-10 3194,-30 3214,-30 3214,-10 3194,-10"/>
<text text-anchor="start" x="3217.629" y="-15.4" font-family="sans-serif" font-size="14.00" fill="#000000"> &#160;Declarations</text>
<polygon fill="#8dd3c7" stroke="transparent" points="3307,-10 3307,-30 3327,-30 3327,-10 3307,-10"/>
<text text-anchor="start" x="3330.7251" y="-15.4" font-family="sans-serif" font-size="14.00" fill="#000000"> &#160;Module</text>
<polygon fill="#80b1d3" stroke="transparent" points="3393,-10 3393,-30 3413,-30 3413,-10 3393,-10"/>
<text text-anchor="start" x="3416.7812" y="-15.4" font-family="sans-serif" font-size="14.00" fill="#000000"> &#160;Bootstrap</text>
<polygon fill="#fdb462" stroke="transparent" points="3490,-10 3490,-30 3510,-30 3510,-10 3490,-10"/>
<text text-anchor="start" x="3513.6732" y="-15.4" font-family="sans-serif" font-size="14.00" fill="#000000"> &#160;Providers</text>
<polygon fill="#fb8072" stroke="transparent" points="3586,-10 3586,-30 3606,-30 3606,-10 3586,-10"/>
<text text-anchor="start" x="3609.7258" y="-15.4" font-family="sans-serif" font-size="14.00" fill="#000000"> &#160;Exports</text>
<g id="clust1" class="cluster">
<title>cluster_AppModule</title>
<polygon fill="none" stroke="#000000" stroke-dasharray="1,5" points="8,-70 8,-268 6848,-268 6848,-70 8,-70"/>
</g>
<g id="clust2" class="cluster">
<title>cluster_AppModule_declarations</title>
<polygon fill="none" stroke="#000000" points="2818,-78 2818,-130 6840,-130 6840,-78 2818,-78"/>
</g>
<g id="clust29" class="cluster">
<title>cluster_AppModule_imports</title>
<polygon fill="none" stroke="#000000" points="710,-78 710,-130 2810,-130 2810,-78 710,-78"/>
</g>
<g id="clust31" class="cluster">
<title>cluster_AppModule_bootstrap</title>
<polygon fill="none" stroke="#000000" points="3448,-208 3448,-260 3572,-260 3572,-208 3448,-208"/>
</g>
<g id="clust32" class="cluster">
<title>cluster_AppModule_providers</title>
<polygon fill="none" stroke="#000000" points="16,-78 16,-130 702,-130 702,-78 16,-78"/>
</g>
<!-- AppComponent -->
<g id="node1" class="node">
<title>AppComponent</title>
<polygon fill="#ffffb3" stroke="#000000" points="6831.9399,-122 6726.0601,-122 6726.0601,-86 6831.9399,-86 6831.9399,-122"/>
<text text-anchor="middle" x="6779" y="-99.8" font-family="Times,serif" font-size="14.00" fill="#000000">AppComponent</text>
</g>
<!-- AppModule -->
<g id="node27" class="node">
<title>AppModule</title>
<polygon fill="#8dd3c7" stroke="#000000" points="3551.6571,-187 3548.6571,-191 3527.6571,-191 3524.6571,-187 3468.3429,-187 3468.3429,-151 3551.6571,-151 3551.6571,-187"/>
<text text-anchor="middle" x="3510" y="-164.8" font-family="Times,serif" font-size="14.00" fill="#000000">AppModule</text>
</g>
<!-- AppComponent&#45;&gt;AppModule -->
<g id="edge1" class="edge">
<title>AppComponent&#45;&gt;AppModule</title>
<path fill="none" stroke="#000000" d="M6779,-122.1985C6779,-146.3563 6779,-186 6779,-186 6779,-186 3561.928,-186 3561.928,-186"/>
<polygon fill="#000000" stroke="#000000" points="3561.928,-182.5001 3551.928,-186 3561.928,-189.5001 3561.928,-182.5001"/>
</g>
<!-- NavbarComponent -->
<g id="node2" class="node">
<title>NavbarComponent</title>
<polygon fill="#ffffb3" stroke="#000000" points="6708.0297,-122 6585.9703,-122 6585.9703,-86 6708.0297,-86 6708.0297,-122"/>
<text text-anchor="middle" x="6647" y="-99.8" font-family="Times,serif" font-size="14.00" fill="#000000">NavbarComponent</text>
</g>
<!-- NavbarComponent&#45;&gt;AppModule -->
<g id="edge2" class="edge">
<title>NavbarComponent&#45;&gt;AppModule</title>
<path fill="none" stroke="#000000" d="M6647,-122.1532C6647,-145.7566 6647,-184 6647,-184 6647,-184 3561.6813,-184 3561.6813,-184"/>
<polygon fill="#000000" stroke="#000000" points="3561.6813,-180.5001 3551.6813,-184 3561.6812,-187.5001 3561.6813,-180.5001"/>
</g>
<!-- HomeComponent -->
<g id="node3" class="node">
<title>HomeComponent</title>
<polygon fill="#ffffb3" stroke="#000000" points="6567.5451,-122 6452.4549,-122 6452.4549,-86 6567.5451,-86 6567.5451,-122"/>
<text text-anchor="middle" x="6510" y="-99.8" font-family="Times,serif" font-size="14.00" fill="#000000">HomeComponent</text>
</g>
<!-- HomeComponent&#45;&gt;AppModule -->
<g id="edge3" class="edge">
<title>HomeComponent&#45;&gt;AppModule</title>
<path fill="none" stroke="#000000" d="M6510,-122.3228C6510,-145.6602 6510,-183 6510,-183 6510,-183 3561.8363,-183 3561.8363,-183"/>
<polygon fill="#000000" stroke="#000000" points="3561.8363,-179.5001 3551.8363,-183 3561.8362,-186.5001 3561.8363,-179.5001"/>
</g>
<!-- LoginComponent -->
<g id="node4" class="node">
<title>LoginComponent</title>
<polygon fill="#ffffb3" stroke="#000000" points="6434.2758,-122 6319.7242,-122 6319.7242,-86 6434.2758,-86 6434.2758,-122"/>
<text text-anchor="middle" x="6377" y="-99.8" font-family="Times,serif" font-size="14.00" fill="#000000">LoginComponent</text>
</g>
<!-- LoginComponent&#45;&gt;AppModule -->
<g id="edge4" class="edge">
<title>LoginComponent&#45;&gt;AppModule</title>
<path fill="none" stroke="#000000" d="M6377,-122.2479C6377,-145.0179 6377,-181 6377,-181 6377,-181 3561.9125,-181 3561.9125,-181"/>
<polygon fill="#000000" stroke="#000000" points="3561.9125,-177.5001 3551.9125,-181 3561.9124,-184.5001 3561.9125,-177.5001"/>
</g>
<!-- ProfileComponent -->
<g id="node5" class="node">
<title>ProfileComponent</title>
<polygon fill="#ffffb3" stroke="#000000" points="6301.9328,-122 6182.0672,-122 6182.0672,-86 6301.9328,-86 6301.9328,-122"/>
<text text-anchor="middle" x="6242" y="-99.8" font-family="Times,serif" font-size="14.00" fill="#000000">ProfileComponent</text>
</g>
<!-- ProfileComponent&#45;&gt;AppModule -->
<g id="edge5" class="edge">
<title>ProfileComponent&#45;&gt;AppModule</title>
<path fill="none" stroke="#000000" d="M6242,-122.1554C6242,-144.3519 6242,-179 6242,-179 6242,-179 3561.82,-179 3561.82,-179"/>
<polygon fill="#000000" stroke="#000000" points="3561.82,-175.5001 3551.82,-179 3561.8199,-182.5001 3561.82,-175.5001"/>
</g>
<!-- DiscardDialogComponent -->
<g id="node6" class="node">
<title>DiscardDialogComponent</title>
<polygon fill="#ffffb3" stroke="#000000" points="6164.4664,-122 6001.5336,-122 6001.5336,-86 6164.4664,-86 6164.4664,-122"/>
<text text-anchor="middle" x="6083" y="-99.8" font-family="Times,serif" font-size="14.00" fill="#000000">DiscardDialogComponent</text>
</g>
<!-- DiscardDialogComponent&#45;&gt;AppModule -->
<g id="edge6" class="edge">
<title>DiscardDialogComponent&#45;&gt;AppModule</title>
<path fill="none" stroke="#000000" d="M6083,-122.2921C6083,-144.2057 6083,-178 6083,-178 6083,-178 3561.7203,-178 3561.7203,-178"/>
<polygon fill="#000000" stroke="#000000" points="3561.7204,-174.5001 3551.7203,-178 3561.7203,-181.5001 3561.7204,-174.5001"/>
</g>
<!-- MatchMakingComponent -->
<g id="node7" class="node">
<title>MatchMakingComponent</title>
<polygon fill="#ffffb3" stroke="#000000" points="5983.147,-122 5822.853,-122 5822.853,-86 5983.147,-86 5983.147,-122"/>
<text text-anchor="middle" x="5903" y="-99.8" font-family="Times,serif" font-size="14.00" fill="#000000">MatchMakingComponent</text>
</g>
<!-- MatchMakingComponent&#45;&gt;AppModule -->
<g id="edge7" class="edge">
<title>MatchMakingComponent&#45;&gt;AppModule</title>
<path fill="none" stroke="#000000" d="M5903,-122.1686C5903,-143.498 5903,-176 5903,-176 5903,-176 3561.7878,-176 3561.7878,-176"/>
<polygon fill="#000000" stroke="#000000" points="3561.7879,-172.5001 3551.7878,-176 3561.7878,-179.5001 3561.7879,-172.5001"/>
</g>
<!-- ProfileImageComponent -->
<g id="node8" class="node">
<title>ProfileImageComponent</title>
<polygon fill="#ffffb3" stroke="#000000" points="5804.413,-122 5649.587,-122 5649.587,-86 5804.413,-86 5804.413,-122"/>
<text text-anchor="middle" x="5727" y="-99.8" font-family="Times,serif" font-size="14.00" fill="#000000">ProfileImageComponent</text>
</g>
<!-- ProfileImageComponent&#45;&gt;AppModule -->
<g id="edge8" class="edge">
<title>ProfileImageComponent&#45;&gt;AppModule</title>
<path fill="none" stroke="#000000" d="M5727,-122.0267C5727,-142.7672 5727,-174 5727,-174 5727,-174 3561.8201,-174 3561.8201,-174"/>
<polygon fill="#000000" stroke="#000000" points="3561.8201,-170.5001 3551.8201,-174 3561.82,-177.5001 3561.8201,-170.5001"/>
</g>
<!-- LobbyComponent -->
<g id="node9" class="node">
<title>LobbyComponent</title>
<polygon fill="#ffffb3" stroke="#000000" points="5631.8851,-122 5514.1149,-122 5514.1149,-86 5631.8851,-86 5631.8851,-122"/>
<text text-anchor="middle" x="5573" y="-99.8" font-family="Times,serif" font-size="14.00" fill="#000000">LobbyComponent</text>
</g>
<!-- LobbyComponent&#45;&gt;AppModule -->
<g id="edge9" class="edge">
<title>LobbyComponent&#45;&gt;AppModule</title>
<path fill="none" stroke="#000000" d="M5573,-122.1289C5573,-142.5724 5573,-173 5573,-173 5573,-173 3561.6754,-173 3561.6754,-173"/>
<polygon fill="#000000" stroke="#000000" points="3561.6754,-169.5001 3551.6754,-173 3561.6754,-176.5001 3561.6754,-169.5001"/>
</g>
<!-- MenuComponent -->
<g id="node10" class="node">
<title>MenuComponent</title>
<polygon fill="#ffffb3" stroke="#000000" points="5495.9916,-122 5382.0084,-122 5382.0084,-86 5495.9916,-86 5495.9916,-122"/>
<text text-anchor="middle" x="5439" y="-99.8" font-family="Times,serif" font-size="14.00" fill="#000000">MenuComponent</text>
</g>
<!-- MenuComponent&#45;&gt;AppModule -->
<g id="edge10" class="edge">
<title>MenuComponent&#45;&gt;AppModule</title>
<path fill="none" stroke="#000000" d="M5439,-122.308C5439,-142.1455 5439,-171 5439,-171 5439,-171 3562.0839,-171 3562.0839,-171"/>
<polygon fill="#000000" stroke="#000000" points="3562.0839,-167.5001 3552.0839,-171 3562.0838,-174.5001 3562.0839,-167.5001"/>
</g>
<!-- CreateGameComponent -->
<g id="node11" class="node">
<title>CreateGameComponent</title>
<polygon fill="#ffffb3" stroke="#000000" points="5363.7907,-122 5212.2093,-122 5212.2093,-86 5363.7907,-86 5363.7907,-122"/>
<text text-anchor="middle" x="5288" y="-99.8" font-family="Times,serif" font-size="14.00" fill="#000000">CreateGameComponent</text>
</g>
<!-- CreateGameComponent&#45;&gt;AppModule -->
<g id="edge11" class="edge">
<title>CreateGameComponent&#45;&gt;AppModule</title>
<path fill="none" stroke="#000000" d="M5288,-122.1061C5288,-141.3391 5288,-169 5288,-169 5288,-169 3561.7639,-169 3561.7639,-169"/>
<polygon fill="#000000" stroke="#000000" points="3561.7639,-165.5001 3551.7639,-169 3561.7639,-172.5001 3561.7639,-165.5001"/>
</g>
<!-- JoinGameComponent -->
<g id="node12" class="node">
<title>JoinGameComponent</title>
<polygon fill="#ffffb3" stroke="#000000" points="5194.094,-122 5055.906,-122 5055.906,-86 5194.094,-86 5194.094,-122"/>
<text text-anchor="middle" x="5125" y="-99.8" font-family="Times,serif" font-size="14.00" fill="#000000">JoinGameComponent</text>
</g>
<!-- JoinGameComponent&#45;&gt;AppModule -->
<g id="edge12" class="edge">
<title>JoinGameComponent&#45;&gt;AppModule</title>
<path fill="none" stroke="#000000" d="M5125,-122.1686C5125,-141.0898 5125,-168 5125,-168 5125,-168 3561.9549,-168 3561.9549,-168"/>
<polygon fill="#000000" stroke="#000000" points="3561.955,-164.5001 3551.9549,-168 3561.9549,-171.5001 3561.955,-164.5001"/>
</g>
<!-- CircleButtonComponent -->
<g id="node13" class="node">
<title>CircleButtonComponent</title>
<polygon fill="#ffffb3" stroke="#000000" points="5037.6582,-122 4884.3418,-122 4884.3418,-86 5037.6582,-86 5037.6582,-122"/>
<text text-anchor="middle" x="4961" y="-99.8" font-family="Times,serif" font-size="14.00" fill="#000000">CircleButtonComponent</text>
</g>
<!-- CircleButtonComponent&#45;&gt;AppModule -->
<g id="edge13" class="edge">
<title>CircleButtonComponent&#45;&gt;AppModule</title>
<path fill="none" stroke="#000000" d="M4961,-122.2667C4961,-140.5552 4961,-166 4961,-166 4961,-166 3561.8608,-166 3561.8608,-166"/>
<polygon fill="#000000" stroke="#000000" points="3561.8608,-162.5001 3551.8608,-166 3561.8607,-169.5001 3561.8608,-162.5001"/>
</g>
<!-- ConfirmResetComponent -->
<g id="node14" class="node">
<title>ConfirmResetComponent</title>
<polygon fill="#ffffb3" stroke="#000000" points="4865.8725,-122 4706.1275,-122 4706.1275,-86 4865.8725,-86 4865.8725,-122"/>
<text text-anchor="middle" x="4786" y="-99.8" font-family="Times,serif" font-size="14.00" fill="#000000">ConfirmResetComponent</text>
</g>
<!-- ConfirmResetComponent&#45;&gt;AppModule -->
<g id="edge14" class="edge">
<title>ConfirmResetComponent&#45;&gt;AppModule</title>
<path fill="none" stroke="#000000" d="M4786,-122.302C4786,-140.2699 4786,-165 4786,-165 4786,-165 3561.7294,-165 3561.7294,-165"/>
<polygon fill="#000000" stroke="#000000" points="3561.7294,-161.5001 3551.7294,-165 3561.7293,-168.5001 3561.7294,-161.5001"/>
</g>
<!-- PasswordDialogComponent -->
<g id="node15" class="node">
<title>PasswordDialogComponent</title>
<polygon fill="#ffffb3" stroke="#000000" points="4688.5884,-122 4515.4116,-122 4515.4116,-86 4688.5884,-86 4688.5884,-122"/>
<text text-anchor="middle" x="4602" y="-99.8" font-family="Times,serif" font-size="14.00" fill="#000000">PasswordDialogComponent</text>
</g>
<!-- PasswordDialogComponent&#45;&gt;AppModule -->
<g id="edge15" class="edge">
<title>PasswordDialogComponent&#45;&gt;AppModule</title>
<path fill="none" stroke="#000000" d="M4602,-122.0225C4602,-139.3734 4602,-163 4602,-163 4602,-163 3561.8058,-163 3561.8058,-163"/>
<polygon fill="#000000" stroke="#000000" points="3561.8059,-159.5001 3551.8058,-163 3561.8058,-166.5001 3561.8059,-159.5001"/>
</g>
<!-- MessageContainerComponent -->
<g id="node16" class="node">
<title>MessageContainerComponent</title>
<polygon fill="#ffffb3" stroke="#000000" points="4497.5182,-122 4312.4818,-122 4312.4818,-86 4497.5182,-86 4497.5182,-122"/>
<text text-anchor="middle" x="4405" y="-99.8" font-family="Times,serif" font-size="14.00" fill="#000000">MessageContainerComponent</text>
</g>
<!-- MessageContainerComponent&#45;&gt;AppModule -->
<g id="edge16" class="edge">
<title>MessageContainerComponent&#45;&gt;AppModule</title>
<path fill="none" stroke="#000000" d="M4405,-122.0352C4405,-138.7344 4405,-161 4405,-161 4405,-161 3561.6695,-161 3561.6695,-161"/>
<polygon fill="#000000" stroke="#000000" points="3561.6696,-157.5001 3551.6695,-161 3561.6695,-164.5001 3561.6696,-157.5001"/>
</g>
<!-- MessageComponent -->
<g id="node17" class="node">
<title>MessageComponent</title>
<polygon fill="#ffffb3" stroke="#000000" points="4294.3104,-122 4163.6896,-122 4163.6896,-86 4294.3104,-86 4294.3104,-122"/>
<text text-anchor="middle" x="4229" y="-99.8" font-family="Times,serif" font-size="14.00" fill="#000000">MessageComponent</text>
</g>
<!-- MessageComponent&#45;&gt;AppModule -->
<g id="edge17" class="edge">
<title>MessageComponent&#45;&gt;AppModule</title>
<path fill="none" stroke="#000000" d="M4229,-122.027C4229,-138.3976 4229,-160 4229,-160 4229,-160 3561.7643,-160 3561.7643,-160"/>
<polygon fill="#000000" stroke="#000000" points="3561.7643,-156.5001 3551.7643,-160 3561.7642,-163.5001 3561.7643,-156.5001"/>
</g>
<!-- TabsContainerComponent -->
<g id="node18" class="node">
<title>TabsContainerComponent</title>
<polygon fill="#ffffb3" stroke="#000000" points="4145.752,-122 3982.248,-122 3982.248,-86 4145.752,-86 4145.752,-122"/>
<text text-anchor="middle" x="4064" y="-99.8" font-family="Times,serif" font-size="14.00" fill="#000000">TabsContainerComponent</text>
</g>
<!-- TabsContainerComponent&#45;&gt;AppModule -->
<g id="edge18" class="edge">
<title>TabsContainerComponent&#45;&gt;AppModule</title>
<path fill="none" stroke="#000000" d="M4064,-122.2819C4064,-137.9478 4064,-158 4064,-158 4064,-158 3562.0948,-158 3562.0948,-158"/>
<polygon fill="#000000" stroke="#000000" points="3562.0948,-154.5001 3552.0948,-158 3562.0947,-161.5001 3562.0948,-154.5001"/>
</g>
<!-- TabsComponent -->
<g id="node19" class="node">
<title>TabsComponent</title>
<polygon fill="#ffffb3" stroke="#000000" points="3964.0452,-122 3855.9548,-122 3855.9548,-86 3964.0452,-86 3964.0452,-122"/>
<text text-anchor="middle" x="3910" y="-99.8" font-family="Times,serif" font-size="14.00" fill="#000000">TabsComponent</text>
</g>
<!-- TabsComponent&#45;&gt;AppModule -->
<g id="edge19" class="edge">
<title>TabsComponent&#45;&gt;AppModule</title>
<path fill="none" stroke="#000000" d="M3910,-122.1871C3910,-137.1824 3910,-156 3910,-156 3910,-156 3561.675,-156 3561.675,-156"/>
<polygon fill="#000000" stroke="#000000" points="3561.6751,-152.5001 3551.675,-156 3561.675,-159.5001 3561.6751,-152.5001"/>
</g>
<!-- TabsNavComponent -->
<g id="node20" class="node">
<title>TabsNavComponent</title>
<polygon fill="#ffffb3" stroke="#000000" points="3837.8655,-122 3706.1345,-122 3706.1345,-86 3837.8655,-86 3837.8655,-122"/>
<text text-anchor="middle" x="3772" y="-99.8" font-family="Times,serif" font-size="14.00" fill="#000000">TabsNavComponent</text>
</g>
<!-- TabsNavComponent&#45;&gt;AppModule -->
<g id="edge20" class="edge">
<title>TabsNavComponent&#45;&gt;AppModule</title>
<path fill="none" stroke="#000000" d="M3772,-122.1243C3772,-136.7832 3772,-155 3772,-155 3772,-155 3561.8044,-155 3561.8044,-155"/>
<polygon fill="#000000" stroke="#000000" points="3561.8044,-151.5001 3551.8044,-155 3561.8044,-158.5001 3561.8044,-151.5001"/>
</g>
<!-- TabComponent -->
<g id="node21" class="node">
<title>TabComponent</title>
<polygon fill="#ffffb3" stroke="#000000" points="3688.5996,-122 3585.4004,-122 3585.4004,-86 3688.5996,-86 3688.5996,-122"/>
<text text-anchor="middle" x="3637" y="-99.8" font-family="Times,serif" font-size="14.00" fill="#000000">TabComponent</text>
</g>
<!-- TabComponent&#45;&gt;AppModule -->
<g id="edge21" class="edge">
<title>TabComponent&#45;&gt;AppModule</title>
<path fill="none" stroke="#000000" d="M3637,-122.2458C3637,-136.1772 3637,-153 3637,-153 3637,-153 3561.9365,-153 3561.9365,-153"/>
<polygon fill="#000000" stroke="#000000" points="3561.9366,-149.5001 3551.9365,-153 3561.9365,-156.5001 3561.9366,-149.5001"/>
</g>
<!-- SliderComponent -->
<g id="node22" class="node">
<title>SliderComponent</title>
<polygon fill="#ffffb3" stroke="#000000" points="3567.2716,-122 3452.7284,-122 3452.7284,-86 3567.2716,-86 3567.2716,-122"/>
<text text-anchor="middle" x="3510" y="-99.8" font-family="Times,serif" font-size="14.00" fill="#000000">SliderComponent</text>
</g>
<!-- SliderComponent&#45;&gt;AppModule -->
<g id="edge22" class="edge">
<title>SliderComponent&#45;&gt;AppModule</title>
<path fill="none" stroke="#000000" d="M3510,-122.1061C3510,-122.1061 3510,-140.991 3510,-140.991"/>
<polygon fill="#000000" stroke="#000000" points="3506.5001,-140.9909 3510,-150.991 3513.5001,-140.991 3506.5001,-140.9909"/>
</g>
<!-- ChatComponent -->
<g id="node23" class="node">
<title>ChatComponent</title>
<polygon fill="#ffffb3" stroke="#000000" points="3434.7744,-122 3327.2256,-122 3327.2256,-86 3434.7744,-86 3434.7744,-122"/>
<text text-anchor="middle" x="3381" y="-99.8" font-family="Times,serif" font-size="14.00" fill="#000000">ChatComponent</text>
</g>
<!-- ChatComponent&#45;&gt;AppModule -->
<g id="edge23" class="edge">
<title>ChatComponent&#45;&gt;AppModule</title>
<path fill="none" stroke="#000000" d="M3381,-122.2458C3381,-136.1772 3381,-153 3381,-153 3381,-153 3458.1174,-153 3458.1174,-153"/>
<polygon fill="#000000" stroke="#000000" points="3458.1174,-156.5001 3468.1174,-153 3458.1174,-149.5001 3458.1174,-156.5001"/>
</g>
<!-- RequestsComponent -->
<g id="node24" class="node">
<title>RequestsComponent</title>
<polygon fill="#ffffb3" stroke="#000000" points="3308.8781,-122 3177.1219,-122 3177.1219,-86 3308.8781,-86 3308.8781,-122"/>
<text text-anchor="middle" x="3243" y="-99.8" font-family="Times,serif" font-size="14.00" fill="#000000">RequestsComponent</text>
</g>
<!-- RequestsComponent&#45;&gt;AppModule -->
<g id="edge24" class="edge">
<title>RequestsComponent&#45;&gt;AppModule</title>
<path fill="none" stroke="#000000" d="M3243,-122.1243C3243,-136.7832 3243,-155 3243,-155 3243,-155 3458.2813,-155 3458.2813,-155"/>
<polygon fill="#000000" stroke="#000000" points="3458.2813,-158.5001 3468.2813,-155 3458.2812,-151.5001 3458.2813,-158.5001"/>
</g>
<!-- ChatMessageComponent -->
<g id="node25" class="node">
<title>ChatMessageComponent</title>
<polygon fill="#ffffb3" stroke="#000000" points="3159.252,-122 3002.748,-122 3002.748,-86 3159.252,-86 3159.252,-122"/>
<text text-anchor="middle" x="3081" y="-99.8" font-family="Times,serif" font-size="14.00" fill="#000000">ChatMessageComponent</text>
</g>
<!-- ChatMessageComponent&#45;&gt;AppModule -->
<g id="edge25" class="edge">
<title>ChatMessageComponent&#45;&gt;AppModule</title>
<path fill="none" stroke="#000000" d="M3081,-122.1871C3081,-137.1824 3081,-156 3081,-156 3081,-156 3458.0846,-156 3458.0846,-156"/>
<polygon fill="#000000" stroke="#000000" points="3458.0846,-159.5001 3468.0846,-156 3458.0845,-152.5001 3458.0846,-159.5001"/>
</g>
<!-- ProfilePopUpComponent -->
<g id="node26" class="node">
<title>ProfilePopUpComponent</title>
<polygon fill="#ffffb3" stroke="#000000" points="2984.3215,-122 2825.6785,-122 2825.6785,-86 2984.3215,-86 2984.3215,-122"/>
<text text-anchor="middle" x="2905" y="-99.8" font-family="Times,serif" font-size="14.00" fill="#000000">ProfilePopUpComponent</text>
</g>
<!-- ProfilePopUpComponent&#45;&gt;AppModule -->
<g id="edge26" class="edge">
<title>ProfilePopUpComponent&#45;&gt;AppModule</title>
<path fill="none" stroke="#000000" d="M2905,-122.2819C2905,-137.9478 2905,-158 2905,-158 2905,-158 3457.9379,-158 3457.9379,-158"/>
<polygon fill="#000000" stroke="#000000" points="3457.9379,-161.5001 3467.9379,-158 3457.9379,-154.5001 3457.9379,-161.5001"/>
</g>
<!-- AppComponent  -->
<g id="node41" class="node">
<title>AppComponent </title>
<polygon fill="#80b1d3" stroke="#000000" points="3564.439,-252 3455.561,-252 3455.561,-216 3564.439,-216 3564.439,-252"/>
<text text-anchor="middle" x="3510" y="-229.8" font-family="Times,serif" font-size="14.00" fill="#000000">AppComponent </text>
</g>
<!-- AppModule&#45;&gt;AppComponent  -->
<g id="edge40" class="edge">
<title>AppModule&#45;&gt;AppComponent </title>
<path fill="none" stroke="#000000" stroke-dasharray="1,5" d="M3510,-187.1061C3510,-187.1061 3510,-205.991 3510,-205.991"/>
<polygon fill="#000000" stroke="#000000" points="3506.5001,-205.9909 3510,-215.991 3513.5001,-205.991 3506.5001,-205.9909"/>
</g>
<!-- BrowserModule -->
<g id="node28" class="node">
<title>BrowserModule</title>
<polygon fill="#8dd3c7" stroke="#000000" points="2802.4734,-122 2799.4734,-126 2778.4734,-126 2775.4734,-122 2695.5266,-122 2695.5266,-86 2802.4734,-86 2802.4734,-122"/>
<text text-anchor="middle" x="2749" y="-99.8" font-family="Times,serif" font-size="14.00" fill="#000000">BrowserModule</text>
</g>
<!-- BrowserModule&#45;&gt;AppModule -->
<g id="edge27" class="edge">
<title>BrowserModule&#45;&gt;AppModule</title>
<path fill="none" stroke="#000000" d="M2749,-122.027C2749,-138.3976 2749,-160 2749,-160 2749,-160 3458.2735,-160 3458.2735,-160"/>
<polygon fill="#000000" stroke="#000000" points="3458.2736,-163.5001 3468.2735,-160 3458.2735,-156.5001 3458.2736,-163.5001"/>
</g>
<!-- AppRoutingModule -->
<g id="node29" class="node">
<title>AppRoutingModule</title>
<polygon fill="#8dd3c7" stroke="#000000" points="2677.2744,-122 2674.2744,-126 2653.2744,-126 2650.2744,-122 2548.7256,-122 2548.7256,-86 2677.2744,-86 2677.2744,-122"/>
<text text-anchor="middle" x="2613" y="-99.8" font-family="Times,serif" font-size="14.00" fill="#000000">AppRoutingModule</text>
</g>
<!-- AppRoutingModule&#45;&gt;AppModule -->
<g id="edge28" class="edge">
<title>AppRoutingModule&#45;&gt;AppModule</title>
<path fill="none" stroke="#000000" d="M2613,-122.0352C2613,-138.7344 2613,-161 2613,-161 2613,-161 3458.2374,-161 3458.2374,-161"/>
<polygon fill="#000000" stroke="#000000" points="3458.2374,-164.5001 3468.2374,-161 3458.2373,-157.5001 3458.2374,-164.5001"/>
</g>
<!-- MaterialModule -->
<g id="node30" class="node">
<title>MaterialModule</title>
<polygon fill="#8dd3c7" stroke="#000000" points="2530.4706,-122 2527.4706,-126 2506.4706,-126 2503.4706,-122 2423.5294,-122 2423.5294,-86 2530.4706,-86 2530.4706,-122"/>
<text text-anchor="middle" x="2477" y="-99.8" font-family="Times,serif" font-size="14.00" fill="#000000">MaterialModule</text>
</g>
<!-- MaterialModule&#45;&gt;AppModule -->
<g id="edge29" class="edge">
<title>MaterialModule&#45;&gt;AppModule</title>
<path fill="none" stroke="#000000" d="M2477,-122.0225C2477,-139.3734 2477,-163 2477,-163 2477,-163 3458.2258,-163 3458.2258,-163"/>
<polygon fill="#000000" stroke="#000000" points="3458.2258,-166.5001 3468.2258,-163 3458.2257,-159.5001 3458.2258,-166.5001"/>
</g>
<!-- HttpClientModule -->
<g id="node31" class="node">
<title>HttpClientModule</title>
<polygon fill="#8dd3c7" stroke="#000000" points="2405.1611,-122 2402.1611,-126 2381.1611,-126 2378.1611,-122 2286.8389,-122 2286.8389,-86 2405.1611,-86 2405.1611,-122"/>
<text text-anchor="middle" x="2346" y="-99.8" font-family="Times,serif" font-size="14.00" fill="#000000">HttpClientModule</text>
</g>
<!-- HttpClientModule&#45;&gt;AppModule -->
<g id="edge30" class="edge">
<title>HttpClientModule&#45;&gt;AppModule</title>
<path fill="none" stroke="#000000" d="M2346,-122.302C2346,-140.2699 2346,-165 2346,-165 2346,-165 3458.2294,-165 3458.2294,-165"/>
<polygon fill="#000000" stroke="#000000" points="3458.2295,-168.5001 3468.2294,-165 3458.2294,-161.5001 3458.2295,-168.5001"/>
</g>
<!-- FormsModule -->
<g id="node32" class="node">
<title>FormsModule</title>
<polygon fill="#8dd3c7" stroke="#000000" points="2268.8288,-122 2265.8288,-126 2244.8288,-126 2241.8288,-122 2173.1712,-122 2173.1712,-86 2268.8288,-86 2268.8288,-122"/>
<text text-anchor="middle" x="2221" y="-99.8" font-family="Times,serif" font-size="14.00" fill="#000000">FormsModule</text>
</g>
<!-- FormsModule&#45;&gt;AppModule -->
<g id="edge31" class="edge">
<title>FormsModule&#45;&gt;AppModule</title>
<path fill="none" stroke="#000000" d="M2221,-122.2667C2221,-140.5552 2221,-166 2221,-166 2221,-166 3458.2098,-166 3458.2098,-166"/>
<polygon fill="#000000" stroke="#000000" points="3458.2098,-169.5001 3468.2098,-166 3458.2097,-162.5001 3458.2098,-169.5001"/>
</g>
<!-- ReactiveFormsModule -->
<g id="node33" class="node">
<title>ReactiveFormsModule</title>
<polygon fill="#8dd3c7" stroke="#000000" points="2155.3047,-122 2152.3047,-126 2131.3047,-126 2128.3047,-122 2010.6953,-122 2010.6953,-86 2155.3047,-86 2155.3047,-122"/>
<text text-anchor="middle" x="2083" y="-99.8" font-family="Times,serif" font-size="14.00" fill="#000000">ReactiveFormsModule</text>
</g>
<!-- ReactiveFormsModule&#45;&gt;AppModule -->
<g id="edge32" class="edge">
<title>ReactiveFormsModule&#45;&gt;AppModule</title>
<path fill="none" stroke="#000000" d="M2083,-122.1686C2083,-141.0898 2083,-168 2083,-168 2083,-168 3458.0654,-168 3458.0654,-168"/>
<polygon fill="#000000" stroke="#000000" points="3458.0655,-171.5001 3468.0654,-168 3458.0654,-164.5001 3458.0655,-171.5001"/>
</g>
<!-- GameModule -->
<g id="node34" class="node">
<title>GameModule</title>
<polygon fill="#8dd3c7" stroke="#000000" points="1992.4762,-122 1989.4762,-126 1968.4762,-126 1965.4762,-122 1899.5238,-122 1899.5238,-86 1992.4762,-86 1992.4762,-122"/>
<text text-anchor="middle" x="1946" y="-99.8" font-family="Times,serif" font-size="14.00" fill="#000000">GameModule</text>
</g>
<!-- GameModule&#45;&gt;AppModule -->
<g id="edge33" class="edge">
<title>GameModule&#45;&gt;AppModule</title>
<path fill="none" stroke="#000000" d="M1946,-122.1061C1946,-141.3391 1946,-169 1946,-169 1946,-169 3458.1668,-169 3458.1668,-169"/>
<polygon fill="#000000" stroke="#000000" points="3458.1668,-172.5001 3468.1668,-169 3458.1667,-165.5001 3458.1668,-172.5001"/>
</g>
<!-- AngularFireModule.initializeApp(args) -->
<g id="node35" class="node">
<title>AngularFireModule.initializeApp(args)</title>
<polygon fill="#8dd3c7" stroke="#000000" points="1881.7057,-122 1878.7057,-126 1857.7057,-126 1854.7057,-122 1644.2943,-122 1644.2943,-86 1881.7057,-86 1881.7057,-122"/>
<text text-anchor="middle" x="1763" y="-99.8" font-family="Times,serif" font-size="14.00" fill="#000000">AngularFireModule.initializeApp(args)</text>
</g>
<!-- AngularFireModule.initializeApp(args)&#45;&gt;AppModule -->
<g id="edge34" class="edge">
<title>AngularFireModule.initializeApp(args)&#45;&gt;AppModule</title>
<path fill="none" stroke="#000000" d="M1763,-122.308C1763,-142.1455 1763,-171 1763,-171 1763,-171 3458.1109,-171 3458.1109,-171"/>
<polygon fill="#000000" stroke="#000000" points="3458.1109,-174.5001 3468.1109,-171 3458.1108,-167.5001 3458.1109,-174.5001"/>
</g>
<!-- AngularFirestoreModule -->
<g id="node36" class="node">
<title>AngularFirestoreModule</title>
<polygon fill="#8dd3c7" stroke="#000000" points="1626.6811,-122 1623.6811,-126 1602.6811,-126 1599.6811,-122 1471.3189,-122 1471.3189,-86 1626.6811,-86 1626.6811,-122"/>
<text text-anchor="middle" x="1549" y="-99.8" font-family="Times,serif" font-size="14.00" fill="#000000">AngularFirestoreModule</text>
</g>
<!-- AngularFirestoreModule&#45;&gt;AppModule -->
<g id="edge35" class="edge">
<title>AngularFirestoreModule&#45;&gt;AppModule</title>
<path fill="none" stroke="#000000" d="M1549,-122.1289C1549,-142.5724 1549,-173 1549,-173 1549,-173 3458.1345,-173 3458.1345,-173"/>
<polygon fill="#000000" stroke="#000000" points="3458.1345,-176.5001 3468.1345,-173 3458.1345,-169.5001 3458.1345,-176.5001"/>
</g>
<!-- AngularFireAuthModule -->
<g id="node37" class="node">
<title>AngularFireAuthModule</title>
<polygon fill="#8dd3c7" stroke="#000000" points="1452.9678,-122 1449.9678,-126 1428.9678,-126 1425.9678,-122 1297.0322,-122 1297.0322,-86 1452.9678,-86 1452.9678,-122"/>
<text text-anchor="middle" x="1375" y="-99.8" font-family="Times,serif" font-size="14.00" fill="#000000">AngularFireAuthModule</text>
</g>
<!-- AngularFireAuthModule&#45;&gt;AppModule -->
<g id="edge36" class="edge">
<title>AngularFireAuthModule&#45;&gt;AppModule</title>
<path fill="none" stroke="#000000" d="M1375,-122.0267C1375,-142.7672 1375,-174 1375,-174 1375,-174 3458.3099,-174 3458.3099,-174"/>
<polygon fill="#000000" stroke="#000000" points="3458.3099,-177.5001 3468.3099,-174 3458.3098,-170.5001 3458.3099,-177.5001"/>
</g>
<!-- AngularFireStorageModule -->
<g id="node38" class="node">
<title>AngularFireStorageModule</title>
<polygon fill="#8dd3c7" stroke="#000000" points="1279.2338,-122 1276.2338,-126 1255.2338,-126 1252.2338,-122 1108.7662,-122 1108.7662,-86 1279.2338,-86 1279.2338,-122"/>
<text text-anchor="middle" x="1194" y="-99.8" font-family="Times,serif" font-size="14.00" fill="#000000">AngularFireStorageModule</text>
</g>
<!-- AngularFireStorageModule&#45;&gt;AppModule -->
<g id="edge37" class="edge">
<title>AngularFireStorageModule&#45;&gt;AppModule</title>
<path fill="none" stroke="#000000" d="M1194,-122.1686C1194,-143.498 1194,-176 1194,-176 1194,-176 3458.3229,-176 3458.3229,-176"/>
<polygon fill="#000000" stroke="#000000" points="3458.3229,-179.5001 3468.3229,-176 3458.3229,-172.5001 3458.3229,-179.5001"/>
</g>
<!-- AngularFireMessagingModule -->
<g id="node39" class="node">
<title>AngularFireMessagingModule</title>
<polygon fill="#8dd3c7" stroke="#000000" points="1090.1246,-122 1087.1246,-126 1066.1246,-126 1063.1246,-122 901.8754,-122 901.8754,-86 1090.1246,-86 1090.1246,-122"/>
<text text-anchor="middle" x="996" y="-99.8" font-family="Times,serif" font-size="14.00" fill="#000000">AngularFireMessagingModule</text>
</g>
<!-- AngularFireMessagingModule&#45;&gt;AppModule -->
<g id="edge38" class="edge">
<title>AngularFireMessagingModule&#45;&gt;AppModule</title>
<path fill="none" stroke="#000000" d="M996,-122.2921C996,-144.2057 996,-178 996,-178 996,-178 3458.2028,-178 3458.2028,-178"/>
<polygon fill="#000000" stroke="#000000" points="3458.2028,-181.5001 3468.2028,-178 3458.2028,-174.5001 3458.2028,-181.5001"/>
</g>
<!-- AppFontAwesomeModule -->
<g id="node40" class="node">
<title>AppFontAwesomeModule</title>
<polygon fill="#8dd3c7" stroke="#000000" points="883.8075,-122 880.8075,-126 859.8075,-126 856.8075,-122 718.1925,-122 718.1925,-86 883.8075,-86 883.8075,-122"/>
<text text-anchor="middle" x="801" y="-99.8" font-family="Times,serif" font-size="14.00" fill="#000000">AppFontAwesomeModule</text>
</g>
<!-- AppFontAwesomeModule&#45;&gt;AppModule -->
<g id="edge39" class="edge">
<title>AppFontAwesomeModule&#45;&gt;AppModule</title>
<path fill="none" stroke="#000000" d="M801,-122.1554C801,-144.3519 801,-179 801,-179 801,-179 3458.2623,-179 3458.2623,-179"/>
<polygon fill="#000000" stroke="#000000" points="3458.2624,-182.5001 3468.2623,-179 3458.2623,-175.5001 3458.2624,-182.5001"/>
</g>
<!-- CanDeactivateGuard -->
<g id="node42" class="node">
<title>CanDeactivateGuard</title>
<ellipse fill="#fdb462" stroke="#000000" cx="602" cy="-104" rx="92.0123" ry="18"/>
<text text-anchor="middle" x="602" y="-99.8" font-family="Times,serif" font-size="14.00" fill="#000000">CanDeactivateGuard</text>
</g>
<!-- CanDeactivateGuard&#45;&gt;AppModule -->
<g id="edge41" class="edge">
<title>CanDeactivateGuard&#45;&gt;AppModule</title>
<path fill="none" stroke="#000000" d="M602,-122.2479C602,-145.0179 602,-181 602,-181 602,-181 3458.3329,-181 3458.3329,-181"/>
<polygon fill="#000000" stroke="#000000" points="3458.3329,-184.5001 3468.3329,-181 3458.3329,-177.5001 3458.3329,-184.5001"/>
</g>
<!-- MatchMakingService -->
<g id="node43" class="node">
<title>MatchMakingService</title>
<ellipse fill="#fdb462" stroke="#000000" cx="397" cy="-104" rx="94.9032" ry="18"/>
<text text-anchor="middle" x="397" y="-99.8" font-family="Times,serif" font-size="14.00" fill="#000000">MatchMakingService</text>
</g>
<!-- MatchMakingService&#45;&gt;AppModule -->
<g id="edge42" class="edge">
<title>MatchMakingService&#45;&gt;AppModule</title>
<path fill="none" stroke="#000000" d="M397,-122.3228C397,-145.6602 397,-183 397,-183 397,-183 3458.0568,-183 3458.0568,-183"/>
<polygon fill="#000000" stroke="#000000" points="3458.0568,-186.5001 3468.0568,-183 3458.0567,-179.5001 3458.0568,-186.5001"/>
</g>
<!-- CookieService -->
<g id="node44" class="node">
<title>CookieService</title>
<ellipse fill="#fdb462" stroke="#000000" cx="216" cy="-104" rx="67.776" ry="18"/>
<text text-anchor="middle" x="216" y="-99.8" font-family="Times,serif" font-size="14.00" fill="#000000">CookieService</text>
</g>
<!-- CookieService&#45;&gt;AppModule -->
<g id="edge43" class="edge">
<title>CookieService&#45;&gt;AppModule</title>
<path fill="none" stroke="#000000" d="M216,-122.1532C216,-145.7566 216,-184 216,-184 216,-184 3458.052,-184 3458.052,-184"/>
<polygon fill="#000000" stroke="#000000" points="3458.052,-187.5001 3468.052,-184 3458.052,-180.5001 3458.052,-187.5001"/>
</g>
<!-- MatDialog -->
<g id="node45" class="node">
<title>MatDialog</title>
<ellipse fill="#fdb462" stroke="#000000" cx="77" cy="-104" rx="52.7469" ry="18"/>
<text text-anchor="middle" x="77" y="-99.8" font-family="Times,serif" font-size="14.00" fill="#000000">MatDialog</text>
</g>
<!-- MatDialog&#45;&gt;AppModule -->
<g id="edge44" class="edge">
<title>MatDialog&#45;&gt;AppModule</title>
<path fill="none" stroke="#000000" d="M77,-122.1985C77,-146.3563 77,-186 77,-186 77,-186 3458.1397,-186 3458.1397,-186"/>
<polygon fill="#000000" stroke="#000000" points="3458.1398,-189.5001 3468.1397,-186 3458.1397,-182.5001 3458.1398,-189.5001"/>
</g>
</g>
</svg>
