<?xml version="1.0" encoding="UTF-8" standalone="no"?>
<!DOCTYPE svg PUBLIC "-//W3C//DTD SVG 1.1//EN"
 "http://www.w3.org/Graphics/SVG/1.1/DTD/svg11.dtd">
<!-- Generated by graphviz version 2.40.1 (20161225.0304)
 -->
<!-- Title: dependencies Pages: 1 -->
<svg width="504pt" height="284pt"
 viewBox="0.00 0.00 504.00 284.00" xmlns="http://www.w3.org/2000/svg" xmlns:xlink="http://www.w3.org/1999/xlink">
<g id="graph0" class="graph" transform="scale(1 1) rotate(0) translate(4 280)">
<title>dependencies</title>
<polygon fill="#ffffff" stroke="transparent" points="-4,4 -4,-280 500,-280 500,4 -4,4"/>
<text text-anchor="start" x="227.0091" y="-42.4" font-family="sans-serif" font-weight="bold" font-size="14.00" fill="#000000">Legend</text>
<polygon fill="#ffffb3" stroke="transparent" points="14,-10 14,-30 34,-30 34,-10 14,-10"/>
<text text-anchor="start" x="37.629" y="-15.4" font-family="sans-serif" font-size="14.00" fill="#000000"> &#160;Declarations</text>
<polygon fill="#8dd3c7" stroke="transparent" points="127,-10 127,-30 147,-30 147,-10 127,-10"/>
<text text-anchor="start" x="150.7251" y="-15.4" font-family="sans-serif" font-size="14.00" fill="#000000"> &#160;Module</text>
<polygon fill="#80b1d3" stroke="transparent" points="213,-10 213,-30 233,-30 233,-10 213,-10"/>
<text text-anchor="start" x="236.7812" y="-15.4" font-family="sans-serif" font-size="14.00" fill="#000000"> &#160;Bootstrap</text>
<polygon fill="#fdb462" stroke="transparent" points="310,-10 310,-30 330,-30 330,-10 310,-10"/>
<text text-anchor="start" x="333.6732" y="-15.4" font-family="sans-serif" font-size="14.00" fill="#000000"> &#160;Providers</text>
<polygon fill="#fb8072" stroke="transparent" points="406,-10 406,-30 426,-30 426,-10 406,-10"/>
<text text-anchor="start" x="429.7258" y="-15.4" font-family="sans-serif" font-size="14.00" fill="#000000"> &#160;Exports</text>
<g id="clust1" class="cluster">
<title>cluster_AppFontAwesomeModule</title>
<polygon fill="none" stroke="#000000" stroke-dasharray="1,5" points="96.5,-70 96.5,-268 399.5,-268 399.5,-70 96.5,-70"/>
</g>
<g id="clust3" class="cluster">
<title>cluster_AppFontAwesomeModule_imports</title>
<polygon fill="none" stroke="#000000" points="104.5,-78 104.5,-130 391.5,-130 391.5,-78 104.5,-78"/>
</g>
<g id="clust4" class="cluster">
<title>cluster_AppFontAwesomeModule_exports</title>
<polygon fill="none" stroke="#000000" points="167.5,-208 167.5,-260 327.5,-260 327.5,-208 167.5,-208"/>
</g>
<!-- CommonModule -->
<g id="node1" class="node">
<title>CommonModule</title>
<polygon fill="#8dd3c7" stroke="#000000" points="383.1681,-122 380.1681,-126 359.1681,-126 356.1681,-122 271.8319,-122 271.8319,-86 383.1681,-86 383.1681,-122"/>
<text text-anchor="middle" x="327.5" y="-99.8" font-family="Times,serif" font-size="14.00" fill="#000000">CommonModule</text>
</g>
<!-- AppFontAwesomeModule -->
<g id="node3" class="node">
<title>AppFontAwesomeModule</title>
<polygon fill="#8dd3c7" stroke="#000000" points="330.3075,-187 327.3075,-191 306.3075,-191 303.3075,-187 164.6925,-187 164.6925,-151 330.3075,-151 330.3075,-187"/>
<text text-anchor="middle" x="247.5" y="-164.8" font-family="Times,serif" font-size="14.00" fill="#000000">AppFontAwesomeModule</text>
</g>
<!-- CommonModule&#45;&gt;AppFontAwesomeModule -->
<g id="edge1" class="edge">
<title>CommonModule&#45;&gt;AppFontAwesomeModule</title>
<path fill="none" stroke="#000000" d="M300.9099,-122.1061C300.9099,-122.1061 300.9099,-140.991 300.9099,-140.991"/>
<polygon fill="#000000" stroke="#000000" points="297.41,-140.9909 300.9099,-150.991 304.41,-140.991 297.41,-140.9909"/>
</g>
<!-- FontAwesomeModule -->
<g id="node2" class="node">
<title>FontAwesomeModule</title>
<polygon fill="#8dd3c7" stroke="#000000" points="254.2007,-122 251.2007,-126 230.2007,-126 227.2007,-122 112.7993,-122 112.7993,-86 254.2007,-86 254.2007,-122"/>
<text text-anchor="middle" x="183.5" y="-99.8" font-family="Times,serif" font-size="14.00" fill="#000000">FontAwesomeModule</text>
</g>
<!-- FontAwesomeModule&#45;&gt;AppFontAwesomeModule -->
<g id="edge2" class="edge">
<title>FontAwesomeModule&#45;&gt;AppFontAwesomeModule</title>
<path fill="none" stroke="#000000" d="M209.4734,-122.1061C209.4734,-122.1061 209.4734,-140.991 209.4734,-140.991"/>
<polygon fill="#000000" stroke="#000000" points="205.9734,-140.9909 209.4734,-150.991 212.9734,-140.991 205.9734,-140.9909"/>
</g>
<!-- FontAwesomeModule  -->
<g id="node4" class="node">
<title>FontAwesomeModule </title>
<polygon fill="#fb8072" stroke="#000000" points="319.7009,-252 175.2991,-252 175.2991,-216 319.7009,-216 319.7009,-252"/>
<text text-anchor="middle" x="247.5" y="-229.8" font-family="Times,serif" font-size="14.00" fill="#000000">FontAwesomeModule </text>
</g>
<!-- AppFontAwesomeModule&#45;&gt;FontAwesomeModule  -->
<g id="edge3" class="edge">
<title>AppFontAwesomeModule&#45;&gt;FontAwesomeModule </title>
<path fill="none" stroke="#000000" stroke-dasharray="5,2" d="M247.5,-187.1061C247.5,-187.1061 247.5,-205.991 247.5,-205.991"/>
<polygon fill="#000000" stroke="#000000" points="244.0001,-205.9909 247.5,-215.991 251.0001,-205.991 244.0001,-205.9909"/>
</g>
</g>
</svg>
